<svg width="20" height="20" viewBox="0 0 20 20" fill="none" xmlns="http://www.w3.org/2000/svg">
<path d="M10.0347 9.64734L3.34497 16.5789C3.55319 17.3311 4.25171 17.8886 5.09129 17.8886C5.42712 17.8886 5.73608 17.8013 6.01146 17.6468L6.03161 17.6334L13.5609 13.3885L10.0347 9.64062V9.64734Z" fill="#EA4335"/>
<path d="M16.8051 8.46523L13.5542 6.61816L9.89368 9.80183L13.5677 13.3885L16.7983 11.5683C17.3625 11.266 17.7521 10.6884 17.7521 10.01C17.7521 9.33167 17.3692 8.76076 16.8118 8.45851L16.8051 8.46523Z" fill="#FBBC04"/>
<path d="M3.345 3.4209C3.3047 3.56866 3.28455 3.71643 3.28455 3.87763V16.1287C3.28455 16.3033 3.3047 16.4377 3.345 16.5854L10.2631 9.82853L3.345 3.4209Z" fill="#4285F4"/>
<path d="M10.0884 10.0033L13.5475 6.62488L6.02489 2.36656C5.74951 2.20536 5.43383 2.11133 5.09129 2.11133C4.25843 2.11133 3.55319 2.66881 3.34497 3.42106L10.0884 9.99661V10.0033Z" fill="#34A853"/>
</svg>
