<svg width="38" height="38" viewBox="0 0 38 38" fill="none" xmlns="http://www.w3.org/2000/svg">
<mask id="mask0_12_185507" style="mask-type:alpha" maskUnits="userSpaceOnUse" x="0" y="0" width="38" height="38">
<rect x="38" y="38" width="38" height="38" transform="rotate(-180 38 38)" fill="#D9D9D9"/>
</mask>
<g mask="url(#mask0_12_185507)">
<path d="M19.0001 14.2893C19.2112 14.2893 19.4091 14.3223 19.5938 14.3883C19.7785 14.4543 19.9501 14.5664 20.1084 14.7247L27.3917 22.0081C27.682 22.2984 27.8271 22.6678 27.8271 23.1164C27.8271 23.565 27.682 23.9345 27.3917 24.2247C27.1015 24.515 26.732 24.6602 26.2834 24.6602C25.8348 24.6602 25.4653 24.515 25.1751 24.2247L19.0001 18.0497L12.8251 24.2247C12.5348 24.515 12.1653 24.6602 11.7167 24.6602C11.2681 24.6602 10.8987 24.515 10.6084 24.2247C10.3181 23.9345 10.173 23.565 10.173 23.1164C10.173 22.6678 10.3181 22.2983 10.6084 22.0081L17.8917 14.7247C18.0501 14.5664 18.2216 14.4543 18.4063 14.3883C18.591 14.3223 18.789 14.2893 19.0001 14.2893Z" fill="#565656"/>
</g>
</svg>
