<svg width="32" height="33" viewBox="0 0 32 33" fill="none" xmlns="http://www.w3.org/2000/svg">
<g id="Icon/32/sns">
<rect y="0.545456" width="32" height="32" rx="16" fill="#565656"/>
<path id="Subtract" fill-rule="evenodd" clip-rule="evenodd" d="M6 12.1024C6 10.5576 7.36447 9.30522 9.04762 9.30522H22.9524C24.6355 9.30522 26 10.5576 26 12.1024V19.0954C26 20.6402 24.6355 21.8926 22.9524 21.8926H18.1622L16.4794 24.2737C16.2541 24.5924 15.7459 24.5924 15.5206 24.2737L13.8378 21.8926H9.04762C7.36447 21.8926 6 20.6402 6 19.0954V12.1024ZM12.8024 12.6841V13.8113C12.8024 13.8113 13.3227 13.7864 13.3227 14.78V17.6619H14.4197V14.5137C14.4197 14.5137 14.4656 12.6841 12.8024 12.6841ZM10.833 14.1904C10.4666 14.218 10.1226 14.3817 9.86519 14.6507V12.7943H8.72656V17.6626H9.87733V17.2816C9.87733 17.2816 10.1488 17.7837 10.8312 17.7837C10.8312 17.7837 12.4356 17.7232 12.4356 15.9675C12.4373 15.971 12.3783 14.1904 10.833 14.1904ZM10.5824 16.7599C10.4375 16.76 10.2959 16.7161 10.1754 16.6336C10.0549 16.5511 9.96096 16.4337 9.90546 16.2964C9.84996 16.159 9.83539 16.0079 9.8636 15.862C9.89181 15.7162 9.96154 15.5822 10.064 15.4771C10.1664 15.3719 10.2969 15.3003 10.4389 15.2714C10.581 15.2424 10.7282 15.2574 10.862 15.3144C10.9958 15.3713 11.1101 15.4678 11.1904 15.5915C11.2708 15.7152 11.3136 15.8606 11.3134 16.0093C11.3123 16.2077 11.2348 16.3975 11.0978 16.5375C10.9609 16.6774 10.7756 16.7561 10.5824 16.7563V16.7599ZM17.1019 14.2013C17.1019 14.2013 15.221 14.2013 15.221 16.0051C15.221 16.0051 15.1603 17.7858 17.1019 17.7858C17.1019 17.7858 19.0253 17.7858 19.0253 16.0051C19.0253 16.0051 19.0886 14.2013 17.1019 14.2013ZM17.1019 16.7557C16.9571 16.7558 16.8154 16.7119 16.695 16.6294C16.5745 16.5469 16.4805 16.4296 16.425 16.2922C16.3695 16.1549 16.3549 16.0037 16.3831 15.8579C16.4114 15.712 16.4811 15.578 16.5835 15.4729C16.6859 15.3677 16.8164 15.2962 16.9585 15.2672C17.1005 15.2382 17.2478 15.2532 17.3815 15.3102C17.5153 15.3672 17.6296 15.4636 17.71 15.5873C17.7903 15.711 17.8331 15.8564 17.833 16.0051C17.8327 16.2041 17.7556 16.3949 17.6186 16.5356C17.4815 16.6763 17.2957 16.7554 17.1019 16.7557ZM22.1663 14.3201V14.6468C22.0484 14.506 21.9019 14.3932 21.7372 14.3163C21.5724 14.2394 21.3934 14.2003 21.2124 14.2017C21.2124 14.2017 19.602 14.1322 19.602 15.993C19.602 15.993 19.5847 17.7265 21.1682 17.7265C21.1682 17.7265 21.8143 17.7532 22.1681 17.2813V17.5537C22.1681 17.5537 22.2479 18.4076 21.4422 18.4076H21.1665V19.443H21.6087C21.6087 19.443 23.272 19.4608 23.272 17.617V14.3227L22.1663 14.3201ZM21.4856 16.756C21.3408 16.7562 21.1991 16.7122 21.0786 16.6297C20.9581 16.5472 20.8642 16.4299 20.8087 16.2925C20.7532 16.1552 20.7386 16.004 20.7668 15.8582C20.7951 15.7123 20.8648 15.5784 20.9672 15.4732C21.0696 15.3681 21.2001 15.2965 21.3422 15.2675C21.4842 15.2386 21.6314 15.2535 21.7652 15.3105C21.899 15.3675 22.0133 15.4639 22.0937 15.5877C22.174 15.7114 22.2168 15.8568 22.2166 16.0055C22.2166 16.2045 22.1396 16.3954 22.0025 16.5362C21.8654 16.6769 21.6795 16.756 21.4856 16.756Z" fill="white"/>
</g>
</svg>
