<svg width="24" height="24" viewBox="0 0 24 24" fill="none" xmlns="http://www.w3.org/2000/svg">
<mask id="mask0_438_3961" style="mask-type:alpha" maskUnits="userSpaceOnUse" x="0" y="0" width="24" height="24">
<rect width="24" height="24" fill="#D9D9D9"/>
</mask>
<g mask="url(#mask0_438_3961)">
<path d="M16.15 13.0005H5C4.71667 13.0005 4.47917 12.9047 4.2875 12.713C4.09583 12.5213 4 12.2838 4 12.0005C4 11.7172 4.09583 11.4797 4.2875 11.288C4.47917 11.0963 4.71667 11.0005 5 11.0005H16.15L13.3 8.1505C13.1 7.9505 13.0042 7.71717 13.0125 7.4505C13.0208 7.18383 13.1167 6.9505 13.3 6.7505C13.5 6.5505 13.7375 6.44633 14.0125 6.438C14.2875 6.42967 14.525 6.5255 14.725 6.7255L19.3 11.3005C19.4 11.4005 19.4708 11.5088 19.5125 11.6255C19.5542 11.7422 19.575 11.8672 19.575 12.0005C19.575 12.1338 19.5542 12.2588 19.5125 12.3755C19.4708 12.4922 19.4 12.6005 19.3 12.7005L14.725 17.2755C14.525 17.4755 14.2875 17.5713 14.0125 17.563C13.7375 17.5547 13.5 17.4505 13.3 17.2505C13.1167 17.0505 13.0208 16.8172 13.0125 16.5505C13.0042 16.2838 13.1 16.0505 13.3 15.8505L16.15 13.0005Z" fill="white"/>
</g>
</svg>
