<svg width="24" height="24" viewBox="0 0 24 24" fill="none" xmlns="http://www.w3.org/2000/svg">
<mask id="mask0_438_1262" style="mask-type:alpha" maskUnits="userSpaceOnUse" x="0" y="0" width="24" height="24">
<rect width="24" height="24" fill="#D9D9D9"/>
</mask>
<g mask="url(#mask0_438_1262)">
<path d="M16.15 12.9995H5C4.71667 12.9995 4.47917 12.9037 4.2875 12.712C4.09583 12.5204 4 12.2829 4 11.9995C4 11.7162 4.09583 11.4787 4.2875 11.287C4.47917 11.0954 4.71667 10.9995 5 10.9995H16.15L13.3 8.14952C13.1 7.94952 13.0042 7.71619 13.0125 7.44952C13.0208 7.18286 13.1167 6.94952 13.3 6.74952C13.5 6.54952 13.7375 6.44536 14.0125 6.43702C14.2875 6.42869 14.525 6.52452 14.725 6.72452L19.3 11.2995C19.4 11.3995 19.4708 11.5079 19.5125 11.6245C19.5542 11.7412 19.575 11.8662 19.575 11.9995C19.575 12.1329 19.5542 12.2579 19.5125 12.3745C19.4708 12.4912 19.4 12.5995 19.3 12.6995L14.725 17.2745C14.525 17.4745 14.2875 17.5704 14.0125 17.562C13.7375 17.5537 13.5 17.4495 13.3 17.2495C13.1167 17.0495 13.0208 16.8162 13.0125 16.5495C13.0042 16.2829 13.1 16.0495 13.3 15.8495L16.15 12.9995Z" fill="#2A7DEA"/>
</g>
</svg>
