<svg width="24" height="24" viewBox="0 0 24 24" fill="none" xmlns="http://www.w3.org/2000/svg">
<mask id="mask0_448_8893" style="mask-type:alpha" maskUnits="userSpaceOnUse" x="0" y="0" width="24" height="24">
<rect width="24" height="24" fill="#D9D9D9"/>
</mask>
<g mask="url(#mask0_448_8893)">
<path d="M12 14.9758C11.8667 14.9758 11.7417 14.9549 11.625 14.9133C11.5083 14.8716 11.4 14.8008 11.3 14.7008L6.7 10.1008C6.51667 9.91745 6.425 9.68411 6.425 9.40078C6.425 9.11745 6.51667 8.88411 6.7 8.70078C6.88333 8.51745 7.11667 8.42578 7.4 8.42578C7.68333 8.42578 7.91667 8.51745 8.1 8.70078L12 12.6008L15.9 8.70078C16.0833 8.51745 16.3167 8.42578 16.6 8.42578C16.8833 8.42578 17.1167 8.51745 17.3 8.70078C17.4833 8.88411 17.575 9.11745 17.575 9.40078C17.575 9.68411 17.4833 9.91745 17.3 10.1008L12.7 14.7008C12.6 14.8008 12.4917 14.8716 12.375 14.9133C12.2583 14.9549 12.1333 14.9758 12 14.9758Z" fill="white"/>
</g>
</svg>
