<svg width="33" height="33" viewBox="0 0 33 33" fill="none" xmlns="http://www.w3.org/2000/svg">
<g id="Icon/32/sns">
<rect x="0.333344" y="0.545456" width="32" height="32" rx="16" fill="#565656"/>
<path id="Subtract" fill-rule="evenodd" clip-rule="evenodd" d="M17.5366 26.5454C22.4921 25.949 26.3333 21.7154 26.3333 16.5814C26.3333 11.0387 21.8562 6.54546 16.3333 6.54546C10.8105 6.54546 6.33334 11.0387 6.33334 16.5814C6.33334 21.3579 9.65824 25.355 14.112 26.3688V20.0405H11.3294V17.1113H14.112V14.8788C14.112 12.3391 15.7481 10.9363 18.2513 10.9363C19.4503 10.9363 20.7044 11.1342 20.7044 11.1342V13.628H19.3225C17.9612 13.628 17.5366 14.4091 17.5366 15.2104V17.1113H20.576L20.0901 20.0405H17.5366V26.5454Z" fill="white"/>
</g>
</svg>
