<svg width="267" height="45" viewBox="0 0 267 45" fill="none" xmlns="http://www.w3.org/2000/svg">
<path d="M80.4412 41.1599L82.4371 33.418H83.2145L85.2104 41.1599L87.0382 33.418H88.2497L85.8196 42.8407H84.6676L82.8678 35.8376L80.9875 42.8407H79.8355L77.4054 33.418H78.6169L80.4447 41.1599H80.4412Z" fill="white"/>
<path d="M92.4657 42.9364C91.7794 42.9364 91.1876 42.7964 90.6939 42.5197C90.2002 42.2431 89.8185 41.8404 89.5524 41.3222C89.2863 40.8005 89.1532 40.1842 89.1532 39.4664V36.7982C89.1532 36.0769 89.2863 35.4571 89.5524 34.9388C89.8185 34.4206 90.1967 34.0214 90.6939 33.7448C91.1911 33.4682 91.7794 33.3281 92.4657 33.3281C93.152 33.3281 93.7437 33.4682 94.2375 33.7448C94.7312 34.0249 95.1128 34.4206 95.379 34.9388C95.6451 35.4571 95.7781 36.0769 95.7781 36.7982V39.4664C95.7781 40.1842 95.6451 40.804 95.379 41.3222C95.1128 41.8439 94.7347 42.2431 94.2375 42.5197C93.7437 42.7999 93.152 42.9364 92.4657 42.9364ZM92.4657 41.8544C93.138 41.8544 93.6702 41.6443 94.0554 41.2242C94.4405 40.804 94.6366 40.2332 94.6366 39.5084V36.7492C94.6366 36.0208 94.444 35.4466 94.0554 35.0299C93.6667 34.6132 93.138 34.4031 92.4657 34.4031C91.7934 34.4031 91.2611 34.6132 90.876 35.0299C90.4908 35.4466 90.2947 36.0208 90.2947 36.7492V39.5084C90.2947 40.2332 90.4873 40.8075 90.876 41.2242C91.2611 41.6443 91.7934 41.8544 92.4657 41.8544Z" fill="white"/>
<path d="M100.638 42.9364C99.9517 42.9364 99.36 42.7964 98.8662 42.5197C98.3725 42.2431 97.9909 41.8404 97.7247 41.3222C97.4586 40.8005 97.3256 40.1842 97.3256 39.4664V36.7982C97.3256 36.0769 97.4586 35.4571 97.7247 34.9388C97.9909 34.4206 98.369 34.0214 98.8662 33.7448C99.3635 33.4682 99.9517 33.3281 100.638 33.3281C101.324 33.3281 101.916 33.4682 102.41 33.7448C102.904 34.0249 103.285 34.4206 103.551 34.9388C103.817 35.4571 103.95 36.0769 103.95 36.7982V39.4664C103.95 40.1842 103.817 40.804 103.551 41.3222C103.285 41.8439 102.907 42.2431 102.41 42.5197C101.916 42.7999 101.324 42.9364 100.638 42.9364ZM100.638 41.8544C101.31 41.8544 101.843 41.6443 102.228 41.2242C102.613 40.804 102.809 40.2332 102.809 39.5084V36.7492C102.809 36.0208 102.616 35.4466 102.228 35.0299C101.839 34.6132 101.31 34.4031 100.638 34.4031C99.9657 34.4031 99.4335 34.6132 99.0483 35.0299C98.6631 35.4466 98.4671 36.0208 98.4671 36.7492V39.5084C98.4671 40.2332 98.6596 40.8075 99.0483 41.2242C99.4335 41.6443 99.9657 41.8544 100.638 41.8544Z" fill="white"/>
<path d="M110.096 42.936C109.637 42.936 109.207 42.894 108.804 42.8065C108.401 42.7189 108.023 42.5894 107.669 42.4178C107.316 42.2462 106.987 42.0291 106.682 41.77L107.375 40.8946C107.75 41.2238 108.167 41.4689 108.618 41.6334C109.073 41.798 109.564 41.8785 110.096 41.8785C110.842 41.8785 111.419 41.735 111.829 41.4479C112.239 41.1607 112.442 40.758 112.442 40.2398V40.2328C112.442 39.8581 112.34 39.5675 112.137 39.3679C111.934 39.1683 111.668 39.0178 111.339 38.9162C111.01 38.8147 110.653 38.7306 110.271 38.6606C109.903 38.5976 109.536 38.5205 109.164 38.433C108.793 38.3455 108.457 38.2194 108.149 38.0513C107.841 37.8833 107.596 37.6417 107.407 37.3335C107.218 37.0219 107.123 36.6087 107.123 36.0905V36.0835C107.123 35.2081 107.414 34.5288 107.998 34.0455C108.583 33.5623 109.406 33.3242 110.467 33.3242C110.968 33.3242 111.462 33.4048 111.945 33.5658C112.428 33.7269 112.901 33.9755 113.363 34.3082L112.715 35.1976C112.33 34.9209 111.952 34.7143 111.581 34.5813C111.209 34.4482 110.838 34.3817 110.467 34.3817C109.76 34.3817 109.21 34.5253 108.821 34.8159C108.433 35.1065 108.237 35.5162 108.237 36.0484V36.0554C108.237 36.4266 108.349 36.7102 108.569 36.9028C108.793 37.0954 109.08 37.2425 109.441 37.3405C109.802 37.4386 110.183 37.5261 110.59 37.6101C110.943 37.6802 111.297 37.7642 111.651 37.8622C112.004 37.9603 112.323 38.1004 112.607 38.2754C112.89 38.454 113.121 38.6956 113.293 39.0038C113.464 39.3119 113.552 39.7111 113.552 40.1978V40.2118C113.552 41.0802 113.251 41.7525 112.645 42.2287C112.039 42.7049 111.188 42.943 110.092 42.943L110.096 42.936Z" fill="white"/>
<path d="M118.16 42.9364C117.474 42.9364 116.882 42.7964 116.388 42.5197C115.895 42.2431 115.513 41.8404 115.247 41.3222C114.981 40.8005 114.848 40.1842 114.848 39.4664V36.7982C114.848 36.0769 114.981 35.4571 115.247 34.9388C115.513 34.4206 115.891 34.0214 116.388 33.7448C116.886 33.4682 117.474 33.3281 118.16 33.3281C118.846 33.3281 119.438 33.4682 119.932 33.7448C120.426 34.0249 120.807 34.4206 121.073 34.9388C121.339 35.4571 121.473 36.0769 121.473 36.7982V39.4664C121.473 40.1842 121.339 40.804 121.073 41.3222C120.807 41.8439 120.429 42.2431 119.932 42.5197C119.438 42.7999 118.846 42.9364 118.16 42.9364ZM118.16 41.8544C118.832 41.8544 119.365 41.6443 119.75 41.2242C120.135 40.804 120.331 40.2332 120.331 39.5084V36.7492C120.331 36.0208 120.138 35.4466 119.75 35.0299C119.361 34.6132 118.832 34.4031 118.16 34.4031C117.488 34.4031 116.956 34.6132 116.57 35.0299C116.185 35.4466 115.989 36.0208 115.989 36.7492V39.5084C115.989 40.2332 116.182 40.8075 116.57 41.2242C116.956 41.6443 117.488 41.8544 118.16 41.8544Z" fill="white"/>
<path d="M126.392 42.9348C125.314 42.9348 124.491 42.6407 123.93 42.0454C123.37 41.4537 123.087 40.5923 123.087 39.4613V33.4141H124.214V39.5068C124.214 40.2631 124.4 40.8374 124.767 41.2331C125.135 41.6287 125.678 41.8248 126.392 41.8248C127.106 41.8248 127.653 41.6287 128.024 41.2331C128.395 40.8374 128.581 40.2631 128.581 39.5068V33.4141H129.708V39.4613C129.708 40.5923 129.424 41.4537 128.861 42.0454C128.297 42.6372 127.474 42.9348 126.389 42.9348H126.392Z" fill="white"/>
<path d="M131.651 42.8298V33.4141H132.719L137.762 41.2996L137.489 41.2541V33.4141H138.609V42.8298H137.527L132.439 34.9618L132.768 35.0668V42.8298H131.648H131.651Z" fill="white"/>
<path d="M143.987 37.893H147.254V39.4091C147.254 40.155 147.125 40.7958 146.866 41.321C146.607 41.8462 146.232 42.2489 145.742 42.522C145.251 42.7951 144.656 42.9317 143.956 42.9317C143.256 42.9317 142.643 42.8021 142.149 42.543C141.652 42.2839 141.274 41.9057 141.011 41.412C140.748 40.9183 140.619 40.3195 140.619 39.6157V36.8355C140.619 36.0896 140.748 35.4524 141.008 34.9271C141.267 34.4019 141.641 34.0027 142.132 33.7296C142.622 33.4565 143.217 33.3164 143.917 33.3164C144.495 33.3164 145.01 33.4285 145.458 33.6456C145.906 33.8662 146.274 34.1848 146.565 34.598C146.855 35.0112 147.062 35.5189 147.177 36.1142H145.959C145.815 35.5469 145.563 35.1197 145.199 34.8291C144.835 34.5385 144.408 34.3914 143.917 34.3914C143.228 34.3914 142.692 34.605 142.321 35.0287C141.946 35.4524 141.76 36.0546 141.76 36.832V39.6122C141.76 40.33 141.953 40.8833 142.335 41.272C142.716 41.6606 143.259 41.8567 143.959 41.8567C144.66 41.8567 145.167 41.6536 145.539 41.2475C145.906 40.8413 146.092 40.2355 146.092 39.4266V38.9539H143.991V37.8895L143.987 37.893Z" fill="white"/>
<path d="M153.12 42.9356C152.461 42.9356 151.887 42.7885 151.397 42.4979C150.903 42.2073 150.521 41.7976 150.248 41.2689C149.975 40.7436 149.839 40.1274 149.839 39.4235V36.8394C149.839 36.1321 149.975 35.5123 150.248 34.9871C150.521 34.4583 150.903 34.0521 151.397 33.758C151.891 33.4674 152.465 33.3203 153.12 33.3203C153.662 33.3203 154.163 33.4324 154.615 33.66C155.066 33.8876 155.445 34.2062 155.749 34.6159C156.054 35.0256 156.26 35.5053 156.369 36.055H155.228C155.133 35.7224 154.979 35.4318 154.765 35.1831C154.552 34.9345 154.3 34.7419 154.012 34.6019C153.725 34.4618 153.428 34.3953 153.123 34.3953C152.479 34.3953 151.961 34.6194 151.572 35.0676C151.18 35.5158 150.987 36.1041 150.987 36.8394V39.4235C150.987 40.1589 151.183 40.7471 151.572 41.1918C151.964 41.6365 152.479 41.8606 153.123 41.8606C153.582 41.8606 154.012 41.7171 154.412 41.4299C154.814 41.1428 155.084 40.7331 155.228 40.2009H156.369C156.26 40.7506 156.054 41.2303 155.746 41.64C155.438 42.0497 155.059 42.3684 154.611 42.596C154.163 42.8236 153.666 42.9356 153.12 42.9356Z" fill="white"/>
<path d="M160.97 42.9364C160.284 42.9364 159.692 42.7964 159.198 42.5197C158.704 42.2431 158.323 41.8404 158.057 41.3222C157.791 40.8005 157.657 40.1842 157.657 39.4664V36.7982C157.657 36.0769 157.791 35.4571 158.057 34.9388C158.323 34.4206 158.701 34.0214 159.198 33.7448C159.695 33.4682 160.284 33.3281 160.97 33.3281C161.656 33.3281 162.248 33.4682 162.742 33.7448C163.235 34.0249 163.617 34.4206 163.883 34.9388C164.149 35.4571 164.282 36.0769 164.282 36.7982V39.4664C164.282 40.1842 164.149 40.804 163.883 41.3222C163.617 41.8439 163.239 42.2431 162.742 42.5197C162.248 42.7999 161.656 42.9364 160.97 42.9364ZM160.97 41.8544C161.642 41.8544 162.174 41.6443 162.56 41.2242C162.945 40.804 163.141 40.2332 163.141 39.5084V36.7492C163.141 36.0208 162.948 35.4466 162.56 35.0299C162.171 34.6132 161.642 34.4031 160.97 34.4031C160.298 34.4031 159.765 34.6132 159.38 35.0299C158.995 35.4466 158.799 36.0208 158.799 36.7492V39.5084C158.799 40.2332 158.992 40.8075 159.38 41.2242C159.765 41.6443 160.298 41.8544 160.97 41.8544Z" fill="white"/>
<path d="M170.162 39.927L173.058 33.4141H174.164V42.8368H173.058V35.2629L173.135 35.6761L170.554 41.5272H169.763L167.182 35.8056L167.259 35.2629V42.8368H166.152V33.4141H167.259L170.155 39.927H170.162Z" fill="white"/>
<path d="M180.372 39.927L183.268 33.4141H184.374V42.8368H183.268V35.2629L183.345 35.6761L180.764 41.5272H179.973L177.392 35.8056L177.469 35.2629V42.8368H176.363V33.4141H177.469L180.365 39.927H180.372Z" fill="white"/>
<path d="M186.577 42.8368V33.4141H187.704V42.8368H186.577ZM187.218 34.4785V33.4176H192.628V34.4785H187.218ZM187.218 38.6909V37.6264H191.917V38.6909H187.218ZM187.218 42.8368V41.7723H192.628V42.8368H187.218Z" fill="white"/>
<path d="M194.375 42.8379V33.4082H195.502V42.8379H194.375ZM194.953 38.8531V37.7887H198.167C198.626 37.7887 198.994 37.6381 199.27 37.3335C199.547 37.0323 199.687 36.6296 199.69 36.1289C199.69 35.6282 199.554 35.2255 199.277 34.9244C199 34.6232 198.633 34.4727 198.171 34.4727H194.956V33.4082H198.118C198.668 33.4082 199.148 33.5203 199.557 33.7479C199.967 33.9755 200.286 34.2906 200.513 34.6968C200.741 35.103 200.853 35.5792 200.853 36.1289C200.853 36.6787 200.737 37.1479 200.51 37.5576C200.282 37.9672 199.963 38.2824 199.554 38.51C199.144 38.7376 198.668 38.8496 198.118 38.8496H194.956L194.953 38.8531ZM199.9 42.8379L197.743 38.5625L198.832 38.2649L201.241 42.8414H199.9V42.8379Z" fill="white"/>
<path d="M205.716 42.9356C205.058 42.9356 204.484 42.7885 203.994 42.4979C203.5 42.2073 203.118 41.7976 202.845 41.2689C202.572 40.7436 202.435 40.1274 202.435 39.4235V36.8394C202.435 36.1321 202.572 35.5123 202.845 34.9871C203.118 34.4583 203.5 34.0521 203.994 33.758C204.487 33.4674 205.062 33.3203 205.716 33.3203C206.259 33.3203 206.76 33.4324 207.212 33.66C207.663 33.8876 208.041 34.2062 208.346 34.6159C208.651 35.0256 208.857 35.5053 208.966 36.055H207.824C207.73 35.7224 207.576 35.4318 207.362 35.1831C207.149 34.9345 206.896 34.7419 206.609 34.6019C206.322 34.4618 206.025 34.3953 205.72 34.3953C205.076 34.3953 204.557 34.6194 204.169 35.0676C203.777 35.5158 203.584 36.1041 203.584 36.8394V39.4235C203.584 40.1589 203.78 40.7471 204.169 41.1918C204.561 41.6365 205.076 41.8606 205.72 41.8606C206.179 41.8606 206.609 41.7171 207.009 41.4299C207.411 41.1428 207.681 40.7331 207.824 40.2009H208.966C208.857 40.7506 208.651 41.2303 208.343 41.64C208.034 42.0497 207.656 42.3684 207.208 42.596C206.76 42.8236 206.263 42.9356 205.716 42.9356Z" fill="white"/>
<path d="M210.58 42.8368V33.4141H211.707V42.8368H210.58ZM211.221 34.4785V33.4176H216.631V34.4785H211.221ZM211.221 38.6909V37.6264H215.92V38.6909H211.221ZM211.221 42.8368V41.7723H216.631V42.8368H211.221Z" fill="white"/>
<path d="M218.108 42.8369V41.6113H219.327V42.8369H218.108Z" fill="white"/>
<path d="M223.949 42.9356C223.291 42.9356 222.716 42.7885 222.226 42.4979C221.732 42.2073 221.351 41.7976 221.078 41.2689C220.805 40.7436 220.668 40.1274 220.668 39.4235V36.8394C220.668 36.1321 220.805 35.5123 221.078 34.9871C221.351 34.4583 221.732 34.0521 222.226 33.758C222.72 33.4674 223.294 33.3203 223.949 33.3203C224.492 33.3203 224.992 33.4324 225.444 33.66C225.896 33.8876 226.274 34.2062 226.579 34.6159C226.883 35.0256 227.09 35.5053 227.198 36.055H226.057C225.962 35.7224 225.808 35.4318 225.595 35.1831C225.381 34.9345 225.129 34.7419 224.842 34.6019C224.555 34.4618 224.257 34.3953 223.952 34.3953C223.308 34.3953 222.79 34.6194 222.401 35.0676C222.009 35.5158 221.816 36.1041 221.816 36.8394V39.4235C221.816 40.1589 222.013 40.7471 222.401 41.1918C222.793 41.6365 223.308 41.8606 223.952 41.8606C224.411 41.8606 224.842 41.7171 225.241 41.4299C225.644 41.1428 225.913 40.7331 226.057 40.2009H227.198C227.09 40.7506 226.883 41.2303 226.575 41.64C226.267 42.0497 225.889 42.3684 225.441 42.596C224.992 42.8236 224.495 42.9356 223.949 42.9356Z" fill="white"/>
<path d="M231.799 42.9364C231.113 42.9364 230.521 42.7964 230.028 42.5197C229.534 42.2431 229.152 41.8404 228.886 41.3222C228.62 40.8005 228.487 40.1842 228.487 39.4664V36.7982C228.487 36.0769 228.62 35.4571 228.886 34.9388C229.152 34.4206 229.53 34.0214 230.028 33.7448C230.525 33.4682 231.113 33.3281 231.799 33.3281C232.486 33.3281 233.077 33.4682 233.571 33.7448C234.065 34.0249 234.447 34.4206 234.713 34.9388C234.979 35.4571 235.112 36.0769 235.112 36.7982V39.4664C235.112 40.1842 234.979 40.804 234.713 41.3222C234.447 41.8439 234.068 42.2431 233.571 42.5197C233.077 42.7999 232.486 42.9364 231.799 42.9364ZM231.799 41.8544C232.472 41.8544 233.004 41.6443 233.389 41.2242C233.774 40.804 233.97 40.2332 233.97 39.5084V36.7492C233.97 36.0208 233.778 35.4466 233.389 35.0299C233 34.6132 232.472 34.4031 231.799 34.4031C231.127 34.4031 230.595 34.6132 230.21 35.0299C229.825 35.4466 229.628 36.0208 229.628 36.7492V39.5084C229.628 40.2332 229.821 40.8075 230.21 41.2242C230.595 41.6443 231.127 41.8544 231.799 41.8544Z" fill="white"/>
<path d="M236.457 42.8369V41.6113H237.675V42.8369H236.457Z" fill="white"/>
<path d="M239.328 44.7943V41.6113H240.546V43.4847L239.328 44.7943Z" fill="white"/>
<path d="M242.476 42.8368V33.4141H243.603V42.8368H242.476ZM243.137 42.8368V41.7723H248.53V42.8368H243.137Z" fill="white"/>
<path d="M248.264 34.4789V33.418H254.913V34.4789H248.264ZM251.026 42.8372V33.9922H252.154V42.8372H251.026Z" fill="white"/>
<path d="M256.076 42.8368V33.4141H257.203V42.8368H256.076ZM256.972 42.8368V41.7723H259.105C259.892 41.7723 260.488 41.5797 260.897 41.1945C261.307 40.8094 261.51 40.2491 261.51 39.5103V36.737C261.51 35.9982 261.307 35.438 260.897 35.0528C260.488 34.6676 259.892 34.475 259.105 34.475H256.972V33.4141H259.066C260.236 33.4141 261.125 33.7012 261.734 34.2754C262.344 34.8497 262.648 35.6866 262.648 36.7896V39.4578C262.648 40.1931 262.512 40.8094 262.239 41.3101C261.965 41.8108 261.563 42.189 261.03 42.4481C260.498 42.7037 259.84 42.8333 259.059 42.8333H256.972V42.8368Z" fill="white"/>
<path d="M263.993 42.8369V41.6113H265.211V42.8369H263.993Z" fill="white"/>
<path d="M0 1.07422L17.5708 43.002L21.3 34.9869L7.10465 1.07422H0Z" fill="white"/>
<path d="M41.2729 22.6124L32.2599 1.07422H25.1552L34.1787 22.6124L31.3705 29.3144L19.5492 1.07422H12.4446L30.0154 43.002H32.7291L41.2729 22.6124Z" fill="white"/>
<path d="M65.4686 9.27839L68.9071 1.07422H35.3552L44.3717 22.6124L42.747 26.4956H54.5507L50.8426 35.3546H39.0319L35.8244 43.002H54.7363L61.6554 26.4956L58.4515 18.8482H49.8902L45.8844 9.27839H65.4686Z" fill="white"/>
<path d="M38.9339 35.3555L35.73 43.0029H35.8245L39.0319 35.3555H38.9339Z" fill="white"/>
<path d="M87.833 27.5293V18.8769H76.5475V15.6345H102.837V18.8769H91.5516V27.5293H87.8295H87.833ZM84.4575 2.0134C85.8476 0.668799 87.5249 0 89.4857 0C91.4466 0 93.1834 0.672301 94.5735 2.0134C95.9636 3.358 96.6569 4.97573 96.6569 6.87008C96.6569 8.76442 95.9636 10.4347 94.5735 11.7583C93.1834 13.0819 91.4886 13.7437 89.4857 13.7437C87.4828 13.7437 85.8476 13.0819 84.4575 11.7583C83.0674 10.4347 82.3741 8.80644 82.3741 6.87008C82.3741 4.93371 83.0674 3.3545 84.4575 2.0134ZM87.0802 4.31743C86.4219 5.03525 86.0927 5.88613 86.0927 6.87008C86.0927 7.85402 86.4219 8.75742 87.0802 9.45423C87.735 10.151 88.5473 10.5012 89.5172 10.5012C90.4872 10.5012 91.247 10.1545 91.9228 9.45423C92.5986 8.75742 92.9383 7.89603 92.9383 6.87008C92.9383 5.84412 92.5986 5.03525 91.9228 4.31743C91.247 3.59961 90.4452 3.23895 89.5172 3.23895C88.5893 3.23895 87.7385 3.59961 87.0802 4.31743Z" fill="white"/>
<path d="M113.209 5.02193L108.646 13.065H104.865L111.588 1.24023H114.83L121.553 13.065H117.712L113.209 5.02193ZM117.393 17.6311C118.762 16.304 120.408 15.6387 122.33 15.6387C124.253 15.6387 125.888 16.304 127.236 17.6311C128.584 18.9617 129.26 20.5549 129.26 22.4212C129.26 24.2876 128.584 25.8107 127.236 27.1203C125.888 28.4299 124.249 29.0847 122.33 29.0847C120.412 29.0847 118.762 28.4299 117.393 27.1203C116.024 25.8107 115.338 24.2455 115.338 22.4212C115.338 20.5969 116.021 18.9617 117.393 17.6311ZM120.016 19.9071C119.379 20.5899 119.06 21.4093 119.06 22.3617C119.06 23.3141 119.379 24.1335 120.016 24.8163C120.653 25.4991 121.434 25.8422 122.362 25.8422C123.29 25.8422 124.001 25.5026 124.617 24.8163C125.233 24.1335 125.545 23.3141 125.545 22.3617C125.545 21.4093 125.237 20.5899 124.617 19.9071C124.001 19.2243 123.248 18.8811 122.362 18.8811C121.476 18.8811 120.653 19.2243 120.016 19.9071ZM127.345 4.42316V1.24374H131.067V15.7402H127.345V7.66911H122.782V4.42666H127.345V4.42316Z" fill="white"/>
<path d="M148.056 10.3638H136.231V7.12132H148.056V4.48114H135.934V1.24219H151.778V15.7072H148.056V10.3638ZM158.26 5.86075V1.24219H161.982L161.957 27.532H158.235L158.26 9.10671H154.24V5.86426H158.26V5.86075Z" fill="white"/>
<path d="M166.916 1.21094H181.079V15.7354H166.916V1.21094ZM177.357 4.45339H170.634V12.4965H177.357V4.45339ZM188.1 5.47234V1.21094H191.822V27.5287H188.1V8.7148H183.538V5.47234H188.1Z" fill="white"/>
<path d="M211.515 1.24219H207.733L197.474 15.7352H202.022L209.593 4.8418L217.11 15.7352H221.715L211.515 1.24219Z" fill="white"/>
<path d="M222.499 20.7402H196.689V23.9827H222.499V20.7402Z" fill="white"/>
<path d="M229.989 13.8382C229.989 9.6678 231.187 5.4274 233.55 1.23253L233.645 1.06445H230.798C228.442 5.24532 227.283 9.72383 227.353 14.3809C227.423 19.031 228.585 23.4325 230.802 27.4698H233.634L233.557 27.3192C231.19 22.5501 229.989 18.012 229.989 13.8382Z" fill="white"/>
<path d="M263.506 1.06445H260.659L260.754 1.23253C263.114 5.43091 264.312 9.6713 264.312 13.8382C264.312 18.005 263.11 22.5501 260.743 27.3192L260.666 27.4698H263.499C265.747 23.4325 266.927 19.031 266.997 14.3809C267.067 9.72383 265.891 5.24532 263.499 1.06445H263.506Z" fill="white"/>
<path d="M245.536 25.1635V17.4145H235.637V14.5117H258.716V17.4145H248.87V25.1635H245.536Z" fill="white"/>
<path d="M253.334 13.0186H257.855L251.699 5.46921H257.697V2.56641H236.656V5.46921H242.654L236.499 13.0186H241.019L247.175 5.46921H247.178L253.334 13.0186Z" fill="white"/>
</svg>
