<svg width="36" height="36" viewBox="0 0 36 36" fill="none" xmlns="http://www.w3.org/2000/svg">
<circle cx="18" cy="18" r="18" fill="#F3F4F6"/>
<mask id="mask0_388_6640" style="mask-type:alpha" maskUnits="userSpaceOnUse" x="6" y="6" width="24" height="24">
<rect x="6" y="6" width="24" height="24" fill="#D9D9D9"/>
</mask>
<g mask="url(#mask0_388_6640)">
<path d="M25.95 27C23.8667 27 21.8083 26.5458 19.775 25.6375C17.7417 24.7292 15.8917 23.4417 14.225 21.775C12.5583 20.1083 11.2708 18.2583 10.3625 16.225C9.45417 14.1917 9 12.1333 9 10.05C9 9.75 9.1 9.5 9.3 9.3C9.5 9.1 9.75 9 10.05 9H14.1C14.3333 9 14.5417 9.07917 14.725 9.2375C14.9083 9.39583 15.0167 9.58333 15.05 9.8L15.7 13.3C15.7333 13.5667 15.725 13.7917 15.675 13.975C15.625 14.1583 15.5333 14.3167 15.4 14.45L12.975 16.9C13.3083 17.5167 13.7042 18.1125 14.1625 18.6875C14.6208 19.2625 15.125 19.8167 15.675 20.35C16.1917 20.8667 16.7333 21.3458 17.3 21.7875C17.8667 22.2292 18.4667 22.6333 19.1 23L21.45 20.65C21.6 20.5 21.7958 20.3875 22.0375 20.3125C22.2792 20.2375 22.5167 20.2167 22.75 20.25L26.2 20.95C26.4333 21.0167 26.625 21.1375 26.775 21.3125C26.925 21.4875 27 21.6833 27 21.9V25.95C27 26.25 26.9 26.5 26.7 26.7C26.5 26.9 26.25 27 25.95 27ZM12.025 15L13.675 13.35L13.25 11H11.025C11.1083 11.6833 11.225 12.3583 11.375 13.025C11.525 13.6917 11.7417 14.35 12.025 15ZM20.975 23.95C21.625 24.2333 22.2875 24.4583 22.9625 24.625C23.6375 24.7917 24.3167 24.9 25 24.95V22.75L22.65 22.275L20.975 23.95Z" fill="#60A5FA"/>
</g>
</svg>
