<svg width="36" height="36" viewBox="0 0 36 36" fill="none" xmlns="http://www.w3.org/2000/svg">
<circle cx="18" cy="18" r="18" fill="#F3F4F6"/>
<mask id="mask0_388_6639" style="mask-type:alpha" maskUnits="userSpaceOnUse" x="6" y="6" width="24" height="24">
<rect x="6" y="6" width="24" height="24" fill="#D9D9D9"/>
</mask>
<g mask="url(#mask0_388_6639)">
<path d="M10 26C9.45 26 8.97917 25.8042 8.5875 25.4125C8.19583 25.0208 8 24.55 8 24V12C8 11.45 8.19583 10.9792 8.5875 10.5875C8.97917 10.1958 9.45 10 10 10H26C26.55 10 27.0208 10.1958 27.4125 10.5875C27.8042 10.9792 28 11.45 28 12V24C28 24.55 27.8042 25.0208 27.4125 25.4125C27.0208 25.8042 26.55 26 26 26H10ZM26 14L18.525 18.675C18.4417 18.725 18.3542 18.7625 18.2625 18.7875C18.1708 18.8125 18.0833 18.825 18 18.825C17.9167 18.825 17.8292 18.8125 17.7375 18.7875C17.6458 18.7625 17.5583 18.725 17.475 18.675L10 14V24H26V14ZM18 17L26 12H10L18 17ZM10 14.25V12.775V12.8V12.7875V14.25Z" fill="#60A5FA"/>
</g>
</svg>
