<svg width="36" height="36" viewBox="0 0 36 36" fill="none" xmlns="http://www.w3.org/2000/svg">
<circle cx="18" cy="18" r="18" fill="#F3F4F6"/>
<mask id="mask0_388_6641" style="mask-type:alpha" maskUnits="userSpaceOnUse" x="6" y="6" width="24" height="24">
<rect x="6" y="6" width="24" height="24" fill="#D9D9D9"/>
</mask>
<g mask="url(#mask0_388_6641)">
<path d="M18 27C17.7167 27 17.4792 26.9042 17.2875 26.7125C17.0958 26.5208 17 26.2833 17 26C17 25.7167 17.0958 25.4792 17.2875 25.2875C17.4792 25.0958 17.7167 25 18 25H25V17.9C25 15.95 24.3208 14.2958 22.9625 12.9375C21.6042 11.5792 19.95 10.9 18 10.9C16.05 10.9 14.3958 11.5792 13.0375 12.9375C11.6792 14.2958 11 15.95 11 17.9V23C11 23.2833 10.9042 23.5208 10.7125 23.7125C10.5208 23.9042 10.2833 24 10 24C9.45 24 8.97917 23.8042 8.5875 23.4125C8.19583 23.0208 8 22.55 8 22V20C8 19.65 8.0875 19.3208 8.2625 19.0125C8.4375 18.7042 8.68333 18.4583 9 18.275L9.075 16.95C9.20833 15.8167 9.5375 14.7667 10.0625 13.8C10.5875 12.8333 11.2458 11.9917 12.0375 11.275C12.8292 10.5583 13.7375 10 14.7625 9.6C15.7875 9.2 16.8667 9 18 9C19.1333 9 20.2083 9.2 21.225 9.6C22.2417 10 23.15 10.5542 23.95 11.2625C24.75 11.9708 25.4083 12.8083 25.925 13.775C26.4417 14.7417 26.775 15.7917 26.925 16.925L27 18.225C27.3167 18.375 27.5625 18.6 27.7375 18.9C27.9125 19.2 28 19.5167 28 19.85V22.15C28 22.4833 27.9125 22.8 27.7375 23.1C27.5625 23.4 27.3167 23.625 27 23.775V25C27 25.55 26.8042 26.0208 26.4125 26.4125C26.0208 26.8042 25.55 27 25 27H18ZM15 20C14.7167 20 14.4792 19.9042 14.2875 19.7125C14.0958 19.5208 14 19.2833 14 19C14 18.7167 14.0958 18.4792 14.2875 18.2875C14.4792 18.0958 14.7167 18 15 18C15.2833 18 15.5208 18.0958 15.7125 18.2875C15.9042 18.4792 16 18.7167 16 19C16 19.2833 15.9042 19.5208 15.7125 19.7125C15.5208 19.9042 15.2833 20 15 20ZM21 20C20.7167 20 20.4792 19.9042 20.2875 19.7125C20.0958 19.5208 20 19.2833 20 19C20 18.7167 20.0958 18.4792 20.2875 18.2875C20.4792 18.0958 20.7167 18 21 18C21.2833 18 21.5208 18.0958 21.7125 18.2875C21.9042 18.4792 22 18.7167 22 19C22 19.2833 21.9042 19.5208 21.7125 19.7125C21.5208 19.9042 21.2833 20 21 20ZM12.025 18.45C11.9083 16.6833 12.4417 15.1667 13.625 13.9C14.8083 12.6333 16.2833 12 18.05 12C19.5333 12 20.8375 12.4708 21.9625 13.4125C23.0875 14.3542 23.7667 15.5583 24 17.025C22.4833 17.0083 21.0875 16.6 19.8125 15.8C18.5375 15 17.5583 13.9167 16.875 12.55C16.6083 13.8833 16.0458 15.0708 15.1875 16.1125C14.3292 17.1542 13.275 17.9333 12.025 18.45Z" fill="#60A5FA"/>
</g>
</svg>
