<svg width="33" height="33" viewBox="0 0 33 33" fill="none" xmlns="http://www.w3.org/2000/svg">
<rect x="0.666687" y="0.545456" width="32" height="32" rx="16" fill="#565656"/>
<g clip-path="url(#clip0_10628_2206)">
<path d="M16.6667 9.0783C19.0699 9.0783 19.3543 9.08708 20.3035 9.1279C21.181 9.16569 21.6575 9.30403 21.9748 9.42044C22.3662 9.55654 22.7202 9.77389 23.0108 10.0565C23.31 10.3309 23.5401 10.6653 23.6843 11.0349C23.8075 11.3346 23.954 11.7847 23.994 12.6133C24.0372 13.5098 24.0465 13.7784 24.0465 16.0482C24.0465 18.3179 24.0372 18.5865 23.994 19.483C23.954 20.3117 23.8075 20.7618 23.6843 21.0614C23.5344 21.4279 23.305 21.7607 23.0108 22.0385C22.7167 22.3163 22.3643 22.533 21.9762 22.6745C21.659 22.7909 21.1824 22.9293 20.305 22.9671C19.3561 23.0079 19.0714 23.0167 16.6681 23.0167C14.2648 23.0167 13.9801 23.0079 13.0312 22.9671C12.1538 22.9293 11.6772 22.7909 11.36 22.6745C10.9686 22.5384 10.6146 22.3211 10.324 22.0385C10.0248 21.7641 9.79464 21.4297 9.65053 21.06C9.52728 20.7604 9.3808 20.3103 9.34079 19.4816C9.29756 18.5851 9.28827 18.3166 9.28827 16.0468C9.28827 13.7771 9.29756 13.5085 9.34079 12.612C9.3808 11.7833 9.52728 11.3332 9.65053 11.0336C9.79464 10.6639 10.0248 10.3296 10.324 10.0551C10.6146 9.77254 10.9686 9.55519 11.36 9.41909C11.6772 9.30268 12.1538 9.16434 13.0312 9.12655C13.9805 9.08573 14.2648 9.07695 16.6681 9.07695L16.6667 9.0783ZM16.6681 7.54546C14.2238 7.54546 13.9172 7.55524 12.9573 7.59674C11.9973 7.63824 11.3436 7.78299 10.772 7.99286C10.1713 8.20642 9.62705 8.54102 9.17717 8.97337C8.71938 9.39826 8.3651 9.91224 8.13898 10.4796C7.91677 11.0194 7.76458 11.6382 7.72099 12.5428C7.6774 13.4474 7.66669 13.7383 7.66669 16.0468C7.66669 18.3554 7.67705 18.6449 7.72099 19.5515C7.76493 20.4581 7.91677 21.0742 8.13898 21.614C8.3652 22.1811 8.71947 22.6949 9.17717 23.1196C9.6269 23.5522 10.1711 23.8869 10.772 24.1004C11.3436 24.3106 11.9988 24.4544 12.9566 24.4955C13.9144 24.5367 14.223 24.5468 16.6674 24.5468C19.1117 24.5468 19.4183 24.537 20.3782 24.4955C21.3382 24.454 21.9898 24.3106 22.5614 24.1004C23.1595 23.8822 23.7026 23.5482 24.156 23.1201C24.6094 22.6919 24.9629 22.1789 25.194 21.614C25.4166 21.0742 25.5688 20.4554 25.6124 19.5508C25.656 18.6462 25.6667 18.3547 25.6667 16.0461C25.6667 13.7376 25.6563 13.4481 25.6124 12.5415C25.5684 11.6348 25.4166 11.0194 25.194 10.4796C24.9681 9.91244 24.6139 9.39866 24.1562 8.97404C23.7064 8.54145 23.1622 8.20662 22.5614 7.99286C21.9898 7.78299 21.3346 7.63926 20.3768 7.59809C19.419 7.55693 19.111 7.54681 16.6667 7.54681L16.6681 7.54546Z" fill="white"/>
<path d="M16.6671 11.6822C15.753 11.6822 14.8595 11.9382 14.0995 12.4178C13.3395 12.8974 12.7472 13.579 12.3974 14.3766C12.0476 15.1741 11.9561 16.0517 12.1344 16.8984C12.3127 17.7451 12.7529 18.5228 13.3992 19.1332C14.0455 19.7436 14.869 20.1593 15.7655 20.3277C16.6619 20.4962 17.5912 20.4097 18.4356 20.0794C19.2801 19.749 20.0019 19.1896 20.5097 18.4718C21.0175 17.754 21.2885 16.9102 21.2885 16.0469C21.2886 15.4737 21.1691 14.9061 20.9368 14.3765C20.7046 13.847 20.3642 13.3658 19.935 12.9605C19.5059 12.5552 18.9964 12.2337 18.4357 12.0143C17.875 11.795 17.274 11.6821 16.6671 11.6822V11.6822ZM16.6671 18.8811C16.0735 18.8811 15.4933 18.7149 14.9998 18.4035C14.5063 18.092 14.1217 17.6494 13.8945 17.1315C13.6674 16.6136 13.608 16.0438 13.7238 15.494C13.8396 14.9442 14.1254 14.4392 14.5451 14.0428C14.9648 13.6464 15.4995 13.3765 16.0816 13.2671C16.6637 13.1578 17.2671 13.2139 17.8155 13.4284C18.3638 13.6429 18.8325 14.0062 19.1623 14.4723C19.492 14.9384 19.668 15.4863 19.668 16.0469C19.668 16.7986 19.3518 17.5195 18.7891 18.051C18.2263 18.5825 17.463 18.8811 16.6671 18.8811Z" fill="white"/>
<path d="M21.4693 12.5268C22.0658 12.5268 22.5493 12.0702 22.5493 11.5068C22.5493 10.9435 22.0658 10.4869 21.4693 10.4869C20.8729 10.4869 20.3893 10.9435 20.3893 11.5068C20.3893 12.0702 20.8729 12.5268 21.4693 12.5268Z" fill="white"/>
</g>
<defs>
<clipPath id="clip0_10628_2206">
<rect width="18" height="17" fill="white" transform="translate(7.66669 7.54546)"/>
</clipPath>
</defs>
</svg>
