<svg width="20" height="20" viewBox="0 0 20 20" fill="none" xmlns="http://www.w3.org/2000/svg">
<path d="M14.6584 10.333C14.6349 8.9096 15.2498 7.80177 16.5012 7.00899C15.7957 5.98297 14.755 5.40627 13.3786 5.27741C12.8891 5.23135 12.2634 5.34699 11.502 5.62725C10.6828 5.93104 10.2217 6.08195 10.1198 6.08195C9.9037 6.08195 9.48869 5.95456 8.87328 5.69732C8.25934 5.44057 7.73604 5.31269 7.30388 5.31269C6.57578 5.32445 5.89863 5.52583 5.27342 5.91634C4.64772 6.30734 4.14746 6.84092 3.77262 7.5166C3.29343 8.35593 3.05481 9.35891 3.05481 10.5251C3.05481 11.5746 3.23071 12.6236 3.58349 13.6741C3.91325 14.6771 4.33463 15.5576 4.84616 16.3146C5.30086 17.003 5.70019 17.5043 6.04072 17.8198C6.53021 18.3093 7.03048 18.543 7.54299 18.519C7.87275 18.5073 8.30442 18.3848 8.83947 18.151C9.33974 17.9306 9.84049 17.8198 10.3412 17.8198C10.8072 17.8198 11.2903 17.9301 11.7916 18.151C12.3487 18.3848 12.8039 18.5014 13.1567 18.5014C13.6799 18.4784 14.1689 18.251 14.6246 17.8203C14.7834 17.6797 14.9568 17.4876 15.1445 17.2426C15.3321 16.9972 15.5399 16.7056 15.7677 16.368C15.9265 16.1235 16.0828 15.8609 16.2371 15.5806C16.391 15.3009 16.5301 15.0039 16.6551 14.6884C16.7114 14.56 16.7624 14.4292 16.8084 14.2949C16.8535 14.1612 16.8991 14.0245 16.9447 13.8843C16.5238 13.6981 16.1426 13.4345 15.8015 13.0965C15.0519 12.3512 14.6707 11.4296 14.6589 10.3335L14.6584 10.333Z" fill="#565656"/>
<path d="M12.5084 3.86076C13.1116 3.10276 13.4134 2.28646 13.4134 1.41137V1.23693C13.4134 1.17814 13.4075 1.12032 13.3963 1.06152C12.9754 1.08504 12.529 1.2193 12.0567 1.46379C11.5848 1.70927 11.1953 2.01845 10.8876 2.39132C10.2736 3.12628 9.96643 3.91319 9.96643 4.75301V4.91862C9.96643 4.97153 9.97231 5.0269 9.98358 5.0857C10.9283 5.17879 11.77 4.77064 12.5089 3.86125L12.5084 3.86076Z" fill="#565656"/>
</svg>
