<svg width="38" height="38" viewBox="0 0 38 38" fill="none" xmlns="http://www.w3.org/2000/svg">
<path d="M13.6292 18.8271C13.6292 18.616 13.6622 18.4181 13.7281 18.2333C13.7941 18.0486 13.9063 17.8771 14.0646 17.7187L21.3479 10.4354C21.6382 10.1451 22.0076 10 22.4563 10C22.9049 10 23.2743 10.1451 23.5646 10.4354C23.8549 10.7257 24 11.0951 24 11.5437C24 11.9924 23.8549 12.3618 23.5646 12.6521L17.3896 18.8271L23.5646 25.0021C23.8549 25.2924 24 25.6618 24 26.1104C24 26.559 23.8549 26.9285 23.5646 27.2188C23.2743 27.509 22.9049 27.6542 22.4563 27.6542C22.0076 27.6542 21.6382 27.509 21.3479 27.2188L14.0646 19.9354C13.9063 19.7771 13.7941 19.6056 13.7281 19.4208C13.6622 19.2361 13.6292 19.0382 13.6292 18.8271Z" fill="#565656"/>
</svg>
