<?xml version="1.0" encoding="UTF-8"?>
<svg id="Layer_2" data-name="Layer 2" xmlns="http://www.w3.org/2000/svg" viewBox="0 0 762.53 127.93">
  <defs>
    <style>
      .cls-1 {
        fill: #231f20;
      }
    </style>
  </defs>
  <g id="Layer_1-2" data-name="Layer 1">
    <g>
      <path class="cls-1" d="M229.73,117.55l5.7-22.11h2.22l5.7,22.11,5.22-22.11h3.46l-6.94,26.91h-3.29l-5.14-20-5.37,20h-3.29l-6.94-26.91h3.46l5.22,22.11Z"/>
      <path class="cls-1" d="M264.07,122.62c-1.96,0-3.65-.4-5.06-1.19s-2.5-1.94-3.26-3.42c-.76-1.49-1.14-3.25-1.14-5.3v-7.62c0-2.06.38-3.83,1.14-5.31s1.84-2.62,3.26-3.41,3.1-1.19,5.06-1.19,3.65.4,5.06,1.19c1.41.8,2.5,1.93,3.26,3.41s1.14,3.25,1.14,5.31v7.62c0,2.05-.38,3.82-1.14,5.3-.76,1.49-1.84,2.63-3.26,3.42-1.41.8-3.1,1.19-5.06,1.19ZM264.07,119.53c1.92,0,3.44-.6,4.54-1.8,1.1-1.2,1.66-2.83,1.66-4.9v-7.88c0-2.08-.55-3.72-1.66-4.91s-2.62-1.79-4.54-1.79-3.44.6-4.54,1.79-1.66,2.83-1.66,4.91v7.88c0,2.07.55,3.71,1.66,4.9,1.1,1.2,2.62,1.8,4.54,1.8Z"/>
      <path class="cls-1" d="M287.41,122.62c-1.96,0-3.65-.4-5.06-1.19s-2.5-1.94-3.26-3.42c-.76-1.49-1.14-3.25-1.14-5.3v-7.62c0-2.06.38-3.83,1.14-5.31s1.84-2.62,3.26-3.41,3.1-1.19,5.06-1.19,3.65.4,5.06,1.19c1.41.8,2.5,1.93,3.26,3.41s1.14,3.25,1.14,5.31v7.62c0,2.05-.38,3.82-1.14,5.3-.76,1.49-1.84,2.63-3.26,3.42-1.41.8-3.1,1.19-5.06,1.19ZM287.41,119.53c1.92,0,3.44-.6,4.54-1.8,1.1-1.2,1.66-2.83,1.66-4.9v-7.88c0-2.08-.55-3.72-1.66-4.91s-2.62-1.79-4.54-1.79-3.44.6-4.54,1.79-1.66,2.83-1.66,4.91v7.88c0,2.07.55,3.71,1.66,4.9,1.1,1.2,2.62,1.8,4.54,1.8Z"/>
      <path class="cls-1" d="M314.42,122.62c-1.31,0-2.54-.12-3.69-.37-1.15-.25-2.23-.62-3.24-1.11-1.01-.49-1.95-1.11-2.82-1.85l1.98-2.5c1.07.94,2.26,1.64,3.55,2.11,1.3.47,2.7.7,4.22.7,2.13,0,3.78-.41,4.95-1.23,1.17-.82,1.75-1.97,1.75-3.45v-.02c0-1.07-.29-1.9-.87-2.47-.58-.57-1.34-1-2.28-1.29s-1.96-.53-3.05-.73c-1.05-.18-2.1-.4-3.16-.65-1.06-.25-2.02-.61-2.9-1.09s-1.58-1.17-2.12-2.05c-.54-.89-.81-2.07-.81-3.55v-.02c0-2.5.83-4.44,2.5-5.82,1.67-1.38,4.02-2.06,7.05-2.06,1.43,0,2.84.23,4.22.69,1.38.46,2.73,1.17,4.05,2.12l-1.85,2.54c-1.1-.79-2.18-1.38-3.24-1.76-1.06-.38-2.12-.57-3.18-.57-2.02,0-3.59.41-4.7,1.24s-1.67,2-1.67,3.52v.02c0,1.06.32,1.87.95,2.42.64.55,1.46.97,2.49,1.25s2.12.53,3.28.77c1.01.2,2.02.44,3.03.72,1.01.28,1.92.68,2.73,1.18.81.51,1.47,1.2,1.96,2.08.49.88.74,2.02.74,3.41v.04c0,2.48-.86,4.4-2.59,5.76-1.73,1.36-4.16,2.04-7.29,2.04Z"/>
      <path class="cls-1" d="M337.45,122.62c-1.96,0-3.65-.4-5.06-1.19s-2.5-1.94-3.26-3.42c-.76-1.49-1.14-3.25-1.14-5.3v-7.62c0-2.06.38-3.83,1.14-5.31s1.84-2.62,3.26-3.41,3.1-1.19,5.06-1.19,3.65.4,5.06,1.19c1.41.8,2.5,1.93,3.26,3.41s1.14,3.25,1.14,5.31v7.62c0,2.05-.38,3.82-1.14,5.3-.76,1.49-1.84,2.63-3.26,3.42-1.41.8-3.1,1.19-5.06,1.19ZM337.45,119.53c1.92,0,3.44-.6,4.54-1.8,1.1-1.2,1.66-2.83,1.66-4.9v-7.88c0-2.08-.55-3.72-1.66-4.91s-2.62-1.79-4.54-1.79-3.44.6-4.54,1.79-1.66,2.83-1.66,4.91v7.88c0,2.07.55,3.71,1.66,4.9,1.1,1.2,2.62,1.8,4.54,1.8Z"/>
      <path class="cls-1" d="M360.96,122.62c-3.08,0-5.43-.84-7.03-2.54-1.6-1.69-2.41-4.15-2.41-7.38v-17.27h3.22v17.4c0,2.16.53,3.8,1.58,4.93s2.6,1.69,4.64,1.69,3.6-.56,4.66-1.69c1.06-1.13,1.59-2.77,1.59-4.93v-17.4h3.22v17.27c0,3.23-.81,5.69-2.42,7.38s-3.96,2.54-7.06,2.54Z"/>
      <path class="cls-1" d="M375.98,122.32v-26.89h3.05l14.4,22.52-.78-.13v-22.39h3.2v26.89h-3.09l-14.53-22.47.94.3v22.17h-3.2Z"/>
      <path class="cls-1" d="M411.21,108.22h9.33v4.33c0,2.13-.37,3.96-1.11,5.46s-1.81,2.65-3.21,3.43-3.1,1.17-5.1,1.17-3.75-.37-5.16-1.11c-1.42-.74-2.5-1.82-3.25-3.23-.75-1.41-1.12-3.12-1.12-5.13v-7.94c0-2.13.37-3.95,1.11-5.45.74-1.5,1.81-2.64,3.21-3.42s3.1-1.18,5.1-1.18c1.65,0,3.12.32,4.4.94,1.28.63,2.33,1.54,3.16,2.72.83,1.18,1.42,2.63,1.75,4.33h-3.48c-.41-1.62-1.13-2.84-2.17-3.67-1.04-.83-2.26-1.25-3.66-1.25-1.97,0-3.5.61-4.56,1.82-1.07,1.21-1.6,2.93-1.6,5.15v7.94c0,2.05.55,3.63,1.64,4.74s2.64,1.67,4.64,1.67,3.45-.58,4.51-1.74c1.05-1.16,1.58-2.89,1.58-5.2v-1.35h-6v-3.04Z"/>
      <path class="cls-1" d="M437.29,122.62c-1.88,0-3.52-.42-4.92-1.25-1.41-.83-2.5-2-3.28-3.51-.78-1.5-1.17-3.26-1.17-5.27v-7.38c0-2.02.39-3.79,1.17-5.29.78-1.51,1.87-2.67,3.28-3.51,1.41-.83,3.05-1.25,4.92-1.25,1.55,0,2.98.32,4.27.97,1.29.65,2.37,1.56,3.24,2.73.87,1.17,1.46,2.54,1.77,4.11h-3.26c-.27-.95-.71-1.78-1.32-2.49-.61-.71-1.33-1.26-2.15-1.66-.82-.4-1.67-.59-2.54-.59-1.84,0-3.32.64-4.43,1.92-1.12,1.28-1.67,2.96-1.67,5.06v7.38c0,2.1.56,3.78,1.67,5.05,1.12,1.27,2.59,1.91,4.43,1.91,1.31,0,2.54-.41,3.68-1.23,1.15-.82,1.92-1.99,2.33-3.51h3.26c-.31,1.57-.9,2.94-1.78,4.11-.88,1.17-1.96,2.08-3.24,2.73-1.28.65-2.7.97-4.26.97Z"/>
      <path class="cls-1" d="M459.71,122.62c-1.96,0-3.65-.4-5.06-1.19s-2.5-1.94-3.26-3.42c-.76-1.49-1.14-3.25-1.14-5.3v-7.62c0-2.06.38-3.83,1.14-5.31s1.84-2.62,3.26-3.41,3.1-1.19,5.06-1.19,3.65.4,5.06,1.19c1.41.8,2.5,1.93,3.26,3.41s1.14,3.25,1.14,5.31v7.62c0,2.05-.38,3.82-1.14,5.3-.76,1.49-1.84,2.63-3.26,3.42-1.41.8-3.1,1.19-5.06,1.19ZM459.71,119.53c1.92,0,3.44-.6,4.54-1.8,1.1-1.2,1.66-2.83,1.66-4.9v-7.88c0-2.08-.55-3.72-1.66-4.91s-2.62-1.79-4.54-1.79-3.44.6-4.54,1.79c-1.1,1.19-1.66,2.83-1.66,4.91v7.88c0,2.07.55,3.71,1.66,4.9,1.1,1.2,2.62,1.8,4.54,1.8Z"/>
      <path class="cls-1" d="M485.96,114.03l8.27-18.6h3.16v26.91h-3.16v-21.63l.22,1.18-7.37,16.71h-2.26l-7.37-16.34.22-1.55v21.63h-3.16v-26.91h3.16l8.27,18.6Z"/>
      <path class="cls-1" d="M515.12,114.03l8.27-18.6h3.16v26.91h-3.16v-21.63l.22,1.18-7.37,16.71h-2.26l-7.37-16.34.22-1.55v21.63h-3.16v-26.91h3.16l8.27,18.6Z"/>
      <path class="cls-1" d="M532.84,122.34v-26.91h3.22v26.91h-3.22ZM534.67,98.47v-3.03h15.45v3.03h-15.45ZM534.67,110.5v-3.04h13.42v3.04h-13.42ZM534.67,122.34v-3.04h15.45v3.04h-15.45Z"/>
      <path class="cls-1" d="M555.11,122.34v-26.93h3.22v26.93h-3.22ZM556.76,110.96v-3.04h9.18c1.31,0,2.36-.43,3.15-1.3.79-.86,1.19-2.01,1.2-3.44,0-1.43-.39-2.58-1.18-3.44-.79-.86-1.84-1.29-3.16-1.29h-9.18v-3.04h9.03c1.57,0,2.94.32,4.11.97,1.17.65,2.08,1.55,2.73,2.71.65,1.16.97,2.52.97,4.09s-.33,2.91-.98,4.08c-.65,1.17-1.56,2.07-2.73,2.72-1.17.65-2.53.97-4.1.97h-9.03ZM570.89,122.34l-6.16-12.21,3.11-.85,6.88,13.07h-3.83Z"/>
      <path class="cls-1" d="M587.5,122.62c-1.88,0-3.52-.42-4.92-1.25-1.41-.83-2.5-2-3.28-3.51-.78-1.5-1.17-3.26-1.17-5.27v-7.38c0-2.02.39-3.79,1.17-5.29.78-1.51,1.87-2.67,3.28-3.51,1.41-.83,3.05-1.25,4.92-1.25,1.55,0,2.98.32,4.27.97,1.29.65,2.37,1.56,3.24,2.73.87,1.17,1.46,2.54,1.77,4.11h-3.26c-.27-.95-.71-1.78-1.32-2.49-.61-.71-1.33-1.26-2.15-1.66-.82-.4-1.67-.59-2.54-.59-1.84,0-3.32.64-4.43,1.92-1.12,1.28-1.67,2.96-1.67,5.06v7.38c0,2.1.56,3.78,1.67,5.05,1.12,1.27,2.59,1.91,4.43,1.91,1.31,0,2.54-.41,3.68-1.23,1.15-.82,1.92-1.99,2.33-3.51h3.26c-.31,1.57-.9,2.94-1.78,4.11-.88,1.17-1.96,2.08-3.24,2.73-1.28.65-2.7.97-4.26.97Z"/>
      <path class="cls-1" d="M601.39,122.34v-26.91h3.22v26.91h-3.22ZM603.22,98.47v-3.03h15.45v3.03h-15.45ZM603.22,110.5v-3.04h13.42v3.04h-13.42ZM603.22,122.34v-3.04h15.45v3.04h-15.45Z"/>
      <path class="cls-1" d="M622.89,122.34v-3.5h3.48v3.5h-3.48Z"/>
      <path class="cls-1" d="M639.57,122.62c-1.88,0-3.52-.42-4.92-1.25-1.41-.83-2.5-2-3.28-3.51-.78-1.5-1.17-3.26-1.17-5.27v-7.38c0-2.02.39-3.79,1.17-5.29.78-1.51,1.87-2.67,3.28-3.51,1.41-.83,3.05-1.25,4.92-1.25,1.55,0,2.98.32,4.27.97,1.29.65,2.37,1.56,3.24,2.73.87,1.17,1.46,2.54,1.77,4.11h-3.26c-.27-.95-.71-1.78-1.32-2.49-.61-.71-1.33-1.26-2.15-1.66-.82-.4-1.67-.59-2.54-.59-1.84,0-3.32.64-4.43,1.92-1.12,1.28-1.67,2.96-1.67,5.06v7.38c0,2.1.56,3.78,1.67,5.05,1.12,1.27,2.59,1.91,4.43,1.91,1.31,0,2.54-.41,3.68-1.23,1.15-.82,1.92-1.99,2.33-3.51h3.26c-.31,1.57-.9,2.94-1.78,4.11-.88,1.17-1.96,2.08-3.24,2.73-1.28.65-2.7.97-4.26.97Z"/>
      <path class="cls-1" d="M661.99,122.62c-1.96,0-3.65-.4-5.06-1.19s-2.5-1.94-3.26-3.42c-.76-1.49-1.14-3.25-1.14-5.3v-7.62c0-2.06.38-3.83,1.14-5.31s1.84-2.62,3.26-3.41,3.1-1.19,5.06-1.19,3.65.4,5.06,1.19c1.41.8,2.5,1.93,3.26,3.41s1.14,3.25,1.14,5.31v7.62c0,2.05-.38,3.82-1.14,5.3-.76,1.49-1.84,2.63-3.26,3.42-1.41.8-3.1,1.19-5.06,1.19ZM661.99,119.53c1.92,0,3.44-.6,4.54-1.8,1.1-1.2,1.66-2.83,1.66-4.9v-7.88c0-2.08-.55-3.72-1.66-4.91s-2.62-1.79-4.54-1.79-3.44.6-4.54,1.79c-1.1,1.19-1.66,2.83-1.66,4.91v7.88c0,2.07.55,3.71,1.66,4.9,1.1,1.2,2.62,1.8,4.54,1.8Z"/>
      <path class="cls-1" d="M675.29,122.34v-3.5h3.48v3.5h-3.48Z"/>
      <path class="cls-1" d="M683.49,127.93v-9.09h3.48v5.35l-3.48,3.74Z"/>
      <path class="cls-1" d="M692.48,122.34v-26.91h3.22v26.91h-3.22ZM694.37,122.34v-3.04h15.4v3.04h-15.4Z"/>
      <path class="cls-1" d="M709.01,98.47v-3.03h18.99v3.03h-18.99ZM716.9,122.34v-25.26h3.22v25.26h-3.22Z"/>
      <path class="cls-1" d="M731.32,122.34v-26.91h3.22v26.91h-3.22ZM733.88,122.34v-3.04h6.09c2.25,0,3.95-.55,5.12-1.65,1.17-1.1,1.75-2.7,1.75-4.81v-7.92c0-2.11-.58-3.71-1.75-4.81-1.17-1.1-2.87-1.65-5.12-1.65h-6.09v-3.03h5.98c3.34,0,5.88.82,7.62,2.46,1.74,1.64,2.61,4.03,2.61,7.18v7.62c0,2.1-.39,3.86-1.17,5.29-.78,1.43-1.93,2.51-3.45,3.25-1.52.73-3.4,1.1-5.63,1.1h-5.96Z"/>
      <path class="cls-1" d="M753.93,122.34v-3.5h3.48v3.5h-3.48Z"/>
    </g>
    <g>
      <polygon class="cls-1" points="0 3.07 50.18 122.81 60.83 99.92 20.29 3.07 0 3.07"/>
      <polygon class="cls-1" points="117.87 64.58 92.13 3.07 71.84 3.07 97.61 64.58 89.59 83.72 55.83 3.07 35.54 3.07 85.72 122.81 93.47 122.81 117.87 64.58"/>
      <g>
        <polygon points="186.97 26.5 196.79 3.07 100.97 3.07 126.72 64.58 122.08 75.67 155.79 75.67 145.2 100.97 111.47 100.97 102.31 122.81 156.32 122.81 176.08 75.67 166.93 53.83 142.48 53.83 131.04 26.5 186.97 26.5"/>
        <polygon points="111.19 100.97 102.04 122.81 102.31 122.81 111.47 100.97 111.19 100.97"/>
      </g>
    </g>
    <g>
      <g>
        <path class="cls-1" d="M250.84,78.62v-24.71h-32.23v-9.26h75.08v9.26h-32.23v24.71h-10.63ZM241.2,5.75c3.97-3.84,8.76-5.75,14.36-5.75s10.56,1.92,14.53,5.75c3.97,3.84,5.95,8.46,5.95,13.87s-1.98,10.18-5.95,13.96c-3.97,3.78-8.81,5.67-14.53,5.67s-10.39-1.89-14.36-5.67c-3.97-3.78-5.95-8.43-5.95-13.96s1.98-10.04,5.95-13.87ZM248.69,12.33c-1.88,2.05-2.82,4.48-2.82,7.29s.94,5.39,2.82,7.38c1.87,1.99,4.19,2.99,6.96,2.99s4.94-.99,6.87-2.99c1.93-1.99,2.9-4.45,2.9-7.38s-.97-5.24-2.9-7.29c-1.93-2.05-4.22-3.08-6.87-3.08s-5.08,1.03-6.96,3.08Z"/>
        <path class="cls-1" d="M323.31,14.34l-13.03,22.97h-10.8l19.2-33.77h9.26l19.2,33.77h-10.97l-12.86-22.97ZM335.26,50.35c3.91-3.79,8.61-5.69,14.1-5.69s10.16,1.9,14.01,5.69c3.85,3.8,5.78,8.35,5.78,13.68s-1.93,9.68-5.78,13.42c-3.85,3.74-8.53,5.61-14.01,5.61s-10.19-1.87-14.1-5.61c-3.91-3.74-5.87-8.21-5.87-13.42s1.95-9.88,5.87-13.68ZM342.75,56.85c-1.82,1.95-2.73,4.29-2.73,7.01s.91,5.06,2.73,7.01c1.82,1.95,4.05,2.93,6.7,2.93s4.68-.97,6.44-2.93c1.76-1.95,2.65-4.29,2.65-7.01s-.88-5.06-2.65-7.01c-1.76-1.95-3.91-2.93-6.44-2.93s-4.88.98-6.7,2.93ZM363.68,12.63V3.55h10.63v41.4h-10.63v-23.05h-13.03v-9.26h13.03Z"/>
        <path class="cls-1" d="M422.83,29.6h-33.77v-9.26h33.77v-7.54h-34.62V3.55h45.25v41.31h-10.63v-15.26ZM451.97,16.74V3.55h10.63l-.07,75.08h-10.63l.07-52.62h-11.48v-9.26h11.48Z"/>
        <path class="cls-1" d="M476.69,3.46h40.45v41.48h-40.45V3.46ZM506.51,12.72h-19.2v22.97h19.2V12.72ZM537.19,15.63V3.46h10.63v75.16h-10.63V24.89h-13.03v-9.26h13.03Z"/>
        <g>
          <polygon points="604.06 3.55 593.26 3.55 563.96 44.94 576.95 44.94 598.57 13.83 620.04 44.94 633.19 44.94 604.06 3.55"/>
          <rect class="cls-1" x="561.72" y="59.23" width="73.71" height="9.26"/>
        </g>
      </g>
      <g>
        <g>
          <path d="M656.82,39.52c0-11.91,3.42-24.02,10.17-36l.27-.48h-8.13c-6.73,11.94-10.04,24.73-9.84,38.03.2,13.28,3.52,25.85,9.85,37.38h8.09l-.22-.43c-6.76-13.62-10.19-26.58-10.19-38.5Z"/>
          <path d="M752.54,3.04h-8.13l.27.48c6.74,11.99,10.16,24.1,10.16,36s-3.43,24.88-10.19,38.5l-.22.43h8.09c6.42-11.53,9.79-24.1,9.99-37.38.2-13.3-3.16-26.09-9.99-38.03Z"/>
        </g>
        <g>
          <polygon class="cls-1" points="701.22 71.86 701.22 49.73 672.95 49.73 672.95 41.44 738.86 41.44 738.86 49.73 710.74 49.73 710.74 71.86 701.22 71.86"/>
          <polygon points="723.49 37.18 736.4 37.18 718.82 15.62 735.95 15.62 735.95 7.33 675.86 7.33 675.86 15.62 692.99 15.62 675.41 37.18 688.32 37.18 705.9 15.62 705.91 15.62 723.49 37.18"/>
        </g>
      </g>
    </g>
  </g>
</svg>