<svg width="38" height="38" viewBox="0 0 38 38" fill="none" xmlns="http://www.w3.org/2000/svg">
<mask id="mask0_299_7245" style="mask-type:alpha" maskUnits="userSpaceOnUse" x="0" y="0" width="38" height="38">
<rect width="38" height="38" fill="#D9D9D9"/>
</mask>
<g mask="url(#mask0_299_7245)">
<path d="M19.0001 21.2172L14.4084 25.8089C14.1182 26.0992 13.7487 26.2443 13.3001 26.2443C12.8515 26.2443 12.482 26.0992 12.1918 25.8089C11.9015 25.5186 11.7563 25.1492 11.7563 24.7006C11.7563 24.2519 11.9015 23.8825 12.1918 23.5922L16.7834 19.0006L12.1918 14.4485C11.9015 14.1582 11.7563 13.7887 11.7563 13.3401C11.7563 12.8915 11.9015 12.5221 12.1918 12.2318C12.482 11.9415 12.8515 11.7964 13.3001 11.7964C13.7487 11.7964 14.1182 11.9415 14.4084 12.2318L19.0001 16.8235L23.5522 12.2318C23.8425 11.9415 24.2119 11.7964 24.6605 11.7964C25.1091 11.7964 25.4786 11.9415 25.7688 12.2318C26.0855 12.5485 26.2438 12.9245 26.2438 13.3599C26.2438 13.7953 26.0855 14.1582 25.7688 14.4485L21.1772 19.0006L25.7688 23.5922C26.0591 23.8825 26.2043 24.2519 26.2043 24.7006C26.2043 25.1492 26.0591 25.5186 25.7688 25.8089C25.4522 26.1256 25.0761 26.2839 24.6407 26.2839C24.2053 26.2839 23.8425 26.1256 23.5522 25.8089L19.0001 21.2172Z" fill="#565656"/>
</g>
</svg>
