<svg width="1064" height="1064" viewBox="0 0 1064 1064" fill="none" xmlns="http://www.w3.org/2000/svg">
<g filter="url(#filter0_dd_471_6918)">
<circle cx="532.5" cy="532.5" r="520.5" fill="white"/>
</g>
<g filter="url(#filter1_dd_471_6918)">
<circle cx="533" cy="533" r="344" fill="white"/>
</g>
<circle cx="533" cy="533" r="158" fill="white" stroke="#2A7DEA" stroke-width="2"/>
<path d="M95.6836 320.109C96.668 320.109 97.5794 320.283 98.418 320.629C99.2656 320.966 99.9857 321.449 100.578 322.078H106.484V318.715H109.52V333.262H106.484V330.117H100.564C99.9811 330.737 99.2656 331.22 98.418 331.566C97.5794 331.904 96.668 332.068 95.6836 332.059C94.4622 332.068 93.3503 331.817 92.3477 331.307C91.3542 330.796 90.5703 330.085 89.9961 329.174C89.431 328.262 89.1484 327.237 89.1484 326.098C89.1484 324.949 89.431 323.919 89.9961 323.008C90.5703 322.096 91.3542 321.385 92.3477 320.875C93.3411 320.365 94.4531 320.109 95.6836 320.109ZM95.6836 322.707C94.9727 322.707 94.3438 322.848 93.7969 323.131C93.25 323.404 92.8216 323.796 92.5117 324.307C92.2018 324.817 92.0469 325.414 92.0469 326.098C92.0469 326.763 92.2018 327.355 92.5117 327.875C92.8216 328.385 93.25 328.782 93.7969 329.064C94.3529 329.347 94.9818 329.488 95.6836 329.488C96.3581 329.488 96.9642 329.347 97.502 329.064C98.0488 328.782 98.4772 328.385 98.7871 327.875C99.097 327.355 99.2565 326.763 99.2656 326.098C99.2565 325.414 99.097 324.817 98.7871 324.307C98.4772 323.796 98.0534 323.404 97.5156 323.131C96.9779 322.848 96.3672 322.707 95.6836 322.707ZM101.152 333.781C102.875 333.781 104.37 333.973 105.637 334.355C106.913 334.738 107.893 335.29 108.576 336.01C109.26 336.73 109.602 337.591 109.602 338.594C109.602 339.596 109.26 340.458 108.576 341.178C107.893 341.898 106.913 342.449 105.637 342.832C104.37 343.215 102.875 343.406 101.152 343.406C99.4297 343.406 97.9349 343.215 96.668 342.832C95.4102 342.449 94.4395 341.898 93.7559 341.178C93.0814 340.458 92.7487 339.596 92.7578 338.594C92.7487 337.591 93.0814 336.73 93.7559 336.01C94.4395 335.29 95.4102 334.738 96.668 334.355C97.9349 333.973 99.4297 333.781 101.152 333.781ZM101.152 336.105C99.4206 336.105 98.0807 336.32 97.1328 336.748C96.194 337.176 95.7292 337.792 95.7383 338.594C95.7292 339.368 96.194 339.97 97.1328 340.398C98.0807 340.818 99.4206 341.027 101.152 341.027C102.902 341.027 104.251 340.818 105.199 340.398C106.147 339.97 106.621 339.368 106.621 338.594C106.621 337.792 106.147 337.176 105.199 336.748C104.26 336.32 102.911 336.105 101.152 336.105ZM101.945 324.512C102.091 325.049 102.164 325.578 102.164 326.098C102.164 326.59 102.096 327.109 101.959 327.656H106.484V324.512H101.945ZM119.183 319.809C120.24 319.799 121.211 319.986 122.095 320.369C122.979 320.743 123.717 321.276 124.31 321.969C124.911 322.652 125.312 323.445 125.513 324.348H129.984V318.715H133.019V331.977H129.984V326.809H125.54C125.34 327.729 124.939 328.54 124.337 329.242C123.745 329.944 123.002 330.491 122.109 330.883C121.215 331.266 120.24 331.457 119.183 331.457C117.934 331.457 116.813 331.206 115.82 330.705C114.826 330.204 114.047 329.511 113.482 328.627C112.926 327.734 112.648 326.727 112.648 325.605C112.648 324.493 112.926 323.495 113.482 322.611C114.047 321.727 114.826 321.039 115.82 320.547C116.813 320.046 117.934 319.799 119.183 319.809ZM119.183 322.352C118.472 322.352 117.843 322.484 117.296 322.748C116.749 323.012 116.321 323.391 116.011 323.883C115.701 324.375 115.546 324.949 115.546 325.605C115.546 326.253 115.701 326.827 116.011 327.328C116.321 327.82 116.749 328.203 117.296 328.477C117.852 328.75 118.481 328.887 119.183 328.887C119.866 328.887 120.477 328.75 121.015 328.477C121.562 328.203 121.986 327.82 122.286 327.328C122.596 326.827 122.756 326.253 122.765 325.605C122.756 324.949 122.596 324.375 122.286 323.883C121.986 323.391 121.566 323.012 121.029 322.748C120.491 322.484 119.876 322.352 119.183 322.352ZM119.73 335.75H129.984V333.125H133.019V343.133H116.722V333.125H119.73V335.75ZM129.984 340.672V338.102H119.73V340.672H129.984ZM145.143 325.742C145.143 327.1 145.398 328.445 145.909 329.775C146.428 331.097 147.166 332.286 148.123 333.344C149.09 334.392 150.22 335.185 151.514 335.723L149.846 338.129C148.415 337.518 147.171 336.602 146.114 335.381C145.056 334.16 144.236 332.742 143.653 331.129C143.069 332.861 142.245 334.396 141.178 335.736C140.121 337.067 138.881 338.065 137.459 338.73L135.709 336.352C136.976 335.768 138.088 334.911 139.045 333.781C140.011 332.651 140.754 331.384 141.274 329.98C141.793 328.568 142.053 327.155 142.053 325.742V323.664H136.612V321.148H150.557V323.664H145.143V325.742ZM156.381 343.434H153.319V318.715H156.381V343.434ZM180.045 337.445H176.982V335.285H172.142V333.152H176.982V318.742H180.045V337.445ZM180.619 342.941H162.49V335.641H165.525V340.48H180.619V342.941ZM159.209 329.844C162.417 329.826 165.297 329.771 167.849 329.68C170.401 329.589 172.835 329.397 175.15 329.105L175.314 331.293C173.336 331.621 171.258 331.858 169.08 332.004V336.762H166.045V332.168C164.285 332.241 162.134 332.277 159.591 332.277L159.209 329.844ZM167.275 319.645C168.469 319.645 169.526 319.831 170.447 320.205C171.377 320.57 172.101 321.085 172.621 321.75C173.149 322.406 173.418 323.163 173.427 324.02C173.418 324.895 173.154 325.66 172.634 326.316C172.115 326.973 171.39 327.479 170.461 327.834C169.531 328.189 168.469 328.367 167.275 328.367C166.063 328.367 164.987 328.189 164.048 327.834C163.119 327.479 162.394 326.973 161.875 326.316C161.355 325.66 161.095 324.895 161.095 324.02C161.095 323.163 161.355 322.406 161.875 321.75C162.394 321.085 163.119 320.57 164.048 320.205C164.987 319.831 166.063 319.645 167.275 319.645ZM167.275 321.887C166.282 321.887 165.479 322.078 164.869 322.461C164.267 322.835 163.966 323.354 163.966 324.02C163.966 324.685 164.267 325.209 164.869 325.592C165.479 325.965 166.282 326.152 167.275 326.152C168.232 326.152 169.011 325.961 169.613 325.578C170.214 325.195 170.52 324.676 170.529 324.02C170.52 323.363 170.214 322.844 169.613 322.461C169.011 322.078 168.232 321.887 167.275 321.887ZM196.134 322.625H187.274V324.922H195.423V327.301H187.274V329.734C189.808 329.725 191.841 329.68 193.372 329.598C194.903 329.516 196.434 329.352 197.966 329.105L198.266 331.484C196.79 331.74 195.3 331.913 193.796 332.004C192.301 332.095 190.419 332.141 188.149 332.141H186.29H184.184V320.164H196.134V322.625ZM203.407 333.426H200.345V318.742H203.407V333.426ZM203.407 343.133H187.001V334.52H203.407V343.133ZM190.009 340.672H200.427V336.871H190.009V340.672Z" fill="#303030"/>
<circle cx="260" cy="331" r="37" fill="#F3F4F6"/>
<mask id="mask0_471_6918" style="mask-type:alpha" maskUnits="userSpaceOnUse" x="237" y="308" width="48" height="48">
<rect x="237.095" y="308.096" width="46.9841" height="46.9841" fill="#D9D9D9"/>
</mask>
<g mask="url(#mask0_471_6918)">
<path d="M260.708 347.477C260.861 347.477 261.029 347.439 261.214 347.363C261.399 347.287 261.546 347.194 261.655 347.085L278.001 330.706C278.414 330.293 278.722 329.825 278.923 329.303C279.124 328.781 279.225 328.254 279.225 327.721C279.225 327.177 279.124 326.641 278.923 326.114C278.722 325.586 278.414 325.122 278.001 324.719L269.355 316.073C268.952 315.659 268.487 315.352 267.96 315.151C267.433 314.95 266.897 314.849 266.353 314.849C265.82 314.849 265.293 314.95 264.771 315.151C264.249 315.352 263.781 315.659 263.367 316.073L262.601 316.839L266.451 320.738C266.897 321.195 267.267 321.723 267.56 322.321C267.854 322.919 268.001 323.566 268.001 324.262C268.001 325.546 267.525 326.658 266.573 327.599C265.622 328.539 264.504 329.01 263.221 329.01C262.459 329.01 261.799 328.89 261.239 328.651C260.679 328.411 260.17 328.063 259.713 327.606L256.108 324.018L247.347 332.778C247.206 332.919 247.105 333.069 247.045 333.227C246.986 333.385 246.956 333.55 246.956 333.724C246.956 334.094 247.081 334.407 247.331 334.662C247.581 334.918 247.891 335.046 248.261 335.046C248.435 335.046 248.604 335.002 248.767 334.915C248.93 334.828 249.066 334.73 249.174 334.622L254.754 329.042C255.069 328.727 255.447 328.566 255.888 328.561C256.328 328.556 256.712 328.716 257.038 329.042C257.353 329.358 257.511 329.738 257.511 330.184C257.511 330.63 257.353 331.011 257.038 331.326L251.507 336.873C251.366 337.014 251.265 337.169 251.205 337.338C251.146 337.506 251.116 337.678 251.116 337.852C251.116 338.2 251.246 338.504 251.507 338.765C251.768 339.026 252.073 339.157 252.421 339.157C252.595 339.157 252.764 339.119 252.927 339.043C253.09 338.967 253.226 338.874 253.334 338.765L258.914 333.202C259.229 332.887 259.607 332.726 260.048 332.721C260.488 332.716 260.872 332.876 261.198 333.202C261.513 333.518 261.671 333.898 261.671 334.344C261.671 334.79 261.513 335.171 261.198 335.486L255.667 341.033C255.548 341.142 255.453 341.289 255.382 341.474C255.311 341.658 255.276 341.838 255.276 342.012C255.276 342.36 255.406 342.664 255.667 342.925C255.928 343.186 256.233 343.317 256.581 343.317C256.755 343.317 256.915 343.287 257.062 343.227C257.209 343.168 257.353 343.067 257.494 342.925L263.074 337.363C263.389 337.047 263.767 336.886 264.208 336.881C264.648 336.876 265.032 337.036 265.358 337.363C265.673 337.678 265.831 338.058 265.831 338.504C265.831 338.95 265.673 339.331 265.358 339.646L259.779 345.226C259.637 345.367 259.537 345.522 259.477 345.69C259.417 345.859 259.387 346.02 259.387 346.172C259.387 346.564 259.509 346.879 259.754 347.118C259.999 347.357 260.317 347.477 260.708 347.477ZM260.692 350.74C259.572 350.74 258.574 350.34 257.699 349.541C256.823 348.741 256.304 347.749 256.141 346.564C255.031 346.4 254.101 345.944 253.351 345.193C252.601 344.443 252.144 343.513 251.981 342.404C250.871 342.24 249.95 341.775 249.215 341.009C248.481 340.242 248.033 339.32 247.87 338.243C246.651 338.08 245.651 337.575 244.867 336.726C244.084 335.878 243.693 334.866 243.693 333.692C243.693 333.105 243.804 332.525 244.028 331.954C244.25 331.383 244.579 330.88 245.014 330.445L253.808 321.652C254.428 321.032 255.192 320.722 256.1 320.722C257.008 320.722 257.772 321.032 258.392 321.652L261.834 325.094C262.03 325.301 262.253 325.461 262.503 325.575C262.753 325.69 262.998 325.747 263.237 325.747C263.618 325.747 263.966 325.592 264.281 325.282C264.597 324.972 264.754 324.627 264.754 324.246C264.754 324.072 264.708 323.882 264.616 323.675C264.523 323.468 264.374 323.267 264.167 323.072L257.169 316.073C256.766 315.659 256.301 315.352 255.774 315.151C255.246 314.95 254.71 314.849 254.166 314.849C253.634 314.849 253.106 314.95 252.584 315.151C252.062 315.352 251.594 315.659 251.181 316.073L243.921 323.349C243.334 323.936 242.959 324.643 242.796 325.47C242.633 326.296 242.687 327.096 242.959 327.868C243.1 328.292 243.062 328.7 242.845 329.091C242.627 329.483 242.306 329.744 241.882 329.874C241.458 330.005 241.045 329.964 240.642 329.752C240.24 329.54 239.974 329.222 239.843 328.798C239.408 327.405 239.329 326.027 239.606 324.662C239.884 323.297 240.555 322.082 241.621 321.016L248.848 313.789C249.588 313.06 250.422 312.516 251.352 312.158C252.282 311.799 253.231 311.619 254.199 311.619C255.167 311.619 256.111 311.799 257.03 312.158C257.949 312.516 258.773 313.06 259.501 313.789L260.268 314.556L261.035 313.789C261.774 313.06 262.609 312.516 263.539 312.158C264.469 311.799 265.418 311.619 266.386 311.619C267.354 311.619 268.297 311.799 269.216 312.158C270.135 312.516 270.959 313.06 271.688 313.789L280.285 322.386C281.014 323.115 281.563 323.947 281.933 324.882C282.303 325.817 282.488 326.769 282.488 327.737C282.488 328.705 282.303 329.649 281.933 330.567C281.563 331.487 281.014 332.31 280.285 333.039L263.939 349.369C263.504 349.804 263.006 350.142 262.446 350.381C261.886 350.62 261.301 350.74 260.692 350.74Z" fill="#60A5FA"/>
</g>
<circle cx="533.228" cy="533.228" r="145.228" fill="#2A7DEA"/>
<path d="M447.97 579.338L449.831 572.118H450.556L452.417 579.338L454.121 572.118H455.251L452.985 580.905H451.911L450.232 574.374L448.479 580.905H447.405L445.139 572.118H446.269L447.973 579.338H447.97Z" fill="white"/>
<path d="M459.182 580.994C458.542 580.994 457.99 580.863 457.53 580.605C457.07 580.347 456.714 579.972 456.465 579.489C456.217 579.002 456.093 578.427 456.093 577.758V575.27C456.093 574.597 456.217 574.019 456.465 573.536C456.714 573.053 457.066 572.681 457.53 572.423C457.994 572.165 458.542 572.034 459.182 572.034C459.822 572.034 460.374 572.165 460.834 572.423C461.295 572.684 461.65 573.053 461.899 573.536C462.147 574.019 462.271 574.597 462.271 575.27V577.758C462.271 578.427 462.147 579.005 461.899 579.489C461.65 579.975 461.298 580.347 460.834 580.605C460.374 580.867 459.822 580.994 459.182 580.994ZM459.182 579.985C459.809 579.985 460.305 579.789 460.664 579.397C461.024 579.005 461.206 578.473 461.206 577.797V575.224C461.206 574.545 461.027 574.01 460.664 573.621C460.302 573.233 459.809 573.037 459.182 573.037C458.555 573.037 458.059 573.233 457.7 573.621C457.341 574.01 457.158 574.545 457.158 575.224V577.797C457.158 578.473 457.337 579.009 457.7 579.397C458.059 579.789 458.555 579.985 459.182 579.985Z" fill="white"/>
<path d="M466.803 580.994C466.163 580.994 465.611 580.863 465.151 580.605C464.69 580.347 464.334 579.972 464.086 579.489C463.838 579.002 463.714 578.427 463.714 577.758V575.27C463.714 574.597 463.838 574.019 464.086 573.536C464.334 573.053 464.687 572.681 465.151 572.423C465.614 572.165 466.163 572.034 466.803 572.034C467.443 572.034 467.994 572.165 468.455 572.423C468.915 572.684 469.271 573.053 469.519 573.536C469.767 574.019 469.891 574.597 469.891 575.27V577.758C469.891 578.427 469.767 579.005 469.519 579.489C469.271 579.975 468.918 580.347 468.455 580.605C467.994 580.867 467.443 580.994 466.803 580.994ZM466.803 579.985C467.43 579.985 467.926 579.789 468.285 579.397C468.644 579.005 468.827 578.473 468.827 577.797V575.224C468.827 574.545 468.647 574.01 468.285 573.621C467.923 573.233 467.43 573.037 466.803 573.037C466.176 573.037 465.679 573.233 465.32 573.621C464.961 574.01 464.778 574.545 464.778 575.224V577.797C464.778 578.473 464.958 579.009 465.32 579.397C465.679 579.789 466.176 579.985 466.803 579.985Z" fill="white"/>
<path d="M475.622 580.993C475.194 580.993 474.792 580.954 474.417 580.872C474.041 580.791 473.689 580.67 473.359 580.51C473.029 580.35 472.722 580.148 472.438 579.906L473.085 579.09C473.434 579.397 473.823 579.625 474.244 579.779C474.668 579.932 475.125 580.007 475.622 580.007C476.317 580.007 476.856 579.873 477.238 579.606C477.62 579.338 477.809 578.962 477.809 578.479V578.473C477.809 578.123 477.715 577.852 477.525 577.666C477.336 577.48 477.088 577.34 476.781 577.245C476.474 577.15 476.141 577.072 475.785 577.006C475.442 576.948 475.099 576.876 474.753 576.794C474.407 576.713 474.094 576.595 473.806 576.438C473.519 576.282 473.29 576.056 473.114 575.769C472.938 575.478 472.85 575.093 472.85 574.61V574.603C472.85 573.787 473.121 573.154 473.666 572.703C474.211 572.252 474.978 572.03 475.968 572.03C476.435 572.03 476.895 572.105 477.346 572.256C477.796 572.406 478.237 572.638 478.668 572.948L478.064 573.777C477.705 573.519 477.352 573.327 477.006 573.202C476.66 573.078 476.314 573.016 475.968 573.016C475.308 573.016 474.796 573.15 474.433 573.421C474.071 573.692 473.888 574.074 473.888 574.571V574.577C473.888 574.923 473.992 575.188 474.198 575.367C474.407 575.547 474.675 575.684 475.011 575.775C475.347 575.867 475.703 575.949 476.082 576.027C476.412 576.092 476.742 576.171 477.071 576.262C477.401 576.353 477.698 576.484 477.963 576.647C478.227 576.814 478.443 577.039 478.603 577.326C478.763 577.614 478.844 577.986 478.844 578.44V578.453C478.844 579.263 478.564 579.89 477.999 580.334C477.434 580.778 476.64 581 475.618 581L475.622 580.993Z" fill="white"/>
<path d="M483.141 580.994C482.501 580.994 481.949 580.863 481.489 580.605C481.029 580.347 480.673 579.972 480.424 579.489C480.176 579.002 480.052 578.427 480.052 577.758V575.27C480.052 574.597 480.176 574.019 480.424 573.536C480.673 573.053 481.025 572.681 481.489 572.423C481.953 572.165 482.501 572.034 483.141 572.034C483.781 572.034 484.333 572.165 484.793 572.423C485.254 572.684 485.609 573.053 485.858 573.536C486.106 574.019 486.23 574.597 486.23 575.27V577.758C486.23 578.427 486.106 579.005 485.858 579.489C485.609 579.975 485.257 580.347 484.793 580.605C484.333 580.867 483.781 580.994 483.141 580.994ZM483.141 579.985C483.768 579.985 484.264 579.789 484.623 579.397C484.983 579.005 485.165 578.473 485.165 577.797V575.224C485.165 574.545 484.986 574.01 484.623 573.621C484.261 573.233 483.768 573.037 483.141 573.037C482.514 573.037 482.018 573.233 481.659 573.621C481.3 574.01 481.117 574.545 481.117 575.224V577.797C481.117 578.473 481.296 579.009 481.659 579.397C482.018 579.789 482.514 579.985 483.141 579.985Z" fill="white"/>
<path d="M490.817 580.994C489.812 580.994 489.044 580.72 488.522 580.165C488 579.613 487.735 578.81 487.735 577.755V572.116H488.786V577.798C488.786 578.503 488.96 579.038 489.302 579.407C489.645 579.776 490.151 579.959 490.817 579.959C491.483 579.959 491.993 579.776 492.339 579.407C492.685 579.038 492.858 578.503 492.858 577.798V572.116H493.909V577.755C493.909 578.81 493.645 579.613 493.119 580.165C492.594 580.717 491.826 580.994 490.814 580.994H490.817Z" fill="white"/>
<path d="M495.722 580.896V572.116H496.718L501.419 579.469L501.165 579.427V572.116H502.21V580.896H501.201L496.456 573.559L496.763 573.657V580.896H495.719H495.722Z" fill="white"/>
<path d="M507.225 576.291H510.271V577.705C510.271 578.4 510.15 578.998 509.909 579.488C509.667 579.978 509.318 580.353 508.861 580.608C508.403 580.862 507.848 580.99 507.195 580.99C506.542 580.99 505.971 580.869 505.511 580.627C505.047 580.386 504.694 580.033 504.449 579.573C504.205 579.112 504.084 578.554 504.084 577.898V575.305C504.084 574.609 504.205 574.015 504.446 573.525C504.688 573.036 505.037 572.663 505.494 572.409C505.951 572.154 506.506 572.023 507.159 572.023C507.698 572.023 508.178 572.128 508.596 572.33C509.014 572.536 509.357 572.833 509.628 573.219C509.899 573.604 510.092 574.077 510.199 574.632H509.063C508.929 574.103 508.694 573.705 508.355 573.434C508.015 573.163 507.617 573.026 507.159 573.026C506.516 573.026 506.017 573.225 505.671 573.62C505.321 574.015 505.148 574.577 505.148 575.302V577.894C505.148 578.564 505.328 579.08 505.684 579.442C506.04 579.804 506.546 579.987 507.199 579.987C507.852 579.987 508.325 579.798 508.671 579.419C509.014 579.04 509.187 578.476 509.187 577.721V577.28H507.228V576.288L507.225 576.291Z" fill="white"/>
<path d="M515.74 580.993C515.126 580.993 514.591 580.856 514.134 580.585C513.673 580.314 513.318 579.931 513.063 579.438C512.808 578.949 512.681 578.374 512.681 577.718V575.308C512.681 574.648 512.808 574.07 513.063 573.581C513.318 573.088 513.673 572.709 514.134 572.435C514.594 572.164 515.13 572.026 515.74 572.026C516.246 572.026 516.713 572.131 517.135 572.343C517.556 572.555 517.908 572.852 518.192 573.234C518.476 573.617 518.669 574.064 518.77 574.577H517.706C517.618 574.266 517.474 573.995 517.275 573.763C517.076 573.532 516.841 573.352 516.573 573.221C516.305 573.091 516.028 573.029 515.744 573.029C515.143 573.029 514.66 573.238 514.297 573.656C513.931 574.074 513.752 574.622 513.752 575.308V577.718C513.752 578.403 513.935 578.952 514.297 579.367C514.663 579.781 515.143 579.99 515.744 579.99C516.171 579.99 516.573 579.856 516.945 579.589C517.321 579.321 517.572 578.939 517.706 578.443H518.77C518.669 578.955 518.476 579.403 518.189 579.785C517.902 580.167 517.549 580.464 517.131 580.676C516.713 580.888 516.25 580.993 515.74 580.993Z" fill="white"/>
<path d="M523.06 580.994C522.421 580.994 521.869 580.863 521.408 580.605C520.948 580.347 520.592 579.972 520.344 579.489C520.096 579.002 519.972 578.427 519.972 577.758V575.27C519.972 574.597 520.096 574.019 520.344 573.536C520.592 573.053 520.945 572.681 521.408 572.423C521.872 572.165 522.421 572.034 523.06 572.034C523.7 572.034 524.252 572.165 524.713 572.423C525.173 572.684 525.529 573.053 525.777 573.536C526.025 574.019 526.149 574.597 526.149 575.27V577.758C526.149 578.427 526.025 579.005 525.777 579.489C525.529 579.975 525.176 580.347 524.713 580.605C524.252 580.867 523.7 580.994 523.06 580.994ZM523.06 579.985C523.687 579.985 524.184 579.789 524.543 579.397C524.902 579.005 525.085 578.473 525.085 577.797V575.224C525.085 574.545 524.905 574.01 524.543 573.621C524.18 573.233 523.687 573.037 523.06 573.037C522.434 573.037 521.937 573.233 521.578 573.621C521.219 574.01 521.036 574.545 521.036 575.224V577.797C521.036 578.473 521.216 579.009 521.578 579.397C521.937 579.789 522.434 579.985 523.06 579.985Z" fill="white"/>
<path d="M531.631 578.19L534.332 572.116H535.363V580.903H534.332V573.84L534.403 574.226L531.997 579.682H531.259L528.853 574.346L528.925 573.84V580.903H527.893V572.116H528.925L531.625 578.19H531.631Z" fill="white"/>
<path d="M541.152 578.19L543.853 572.116H544.884V580.903H543.853V573.84L543.924 574.226L541.518 579.682H540.78L538.374 574.346L538.446 573.84V580.903H537.414V572.116H538.446L541.146 578.19H541.152Z" fill="white"/>
<path d="M546.938 580.903V572.116H547.99V580.903H546.938ZM547.536 573.109V572.119H552.58V573.109H547.536ZM547.536 577.037V576.044H551.918V577.037H547.536ZM547.536 580.903V579.91H552.58V580.903H547.536Z" fill="white"/>
<path d="M554.209 580.902V572.108H555.261V580.902H554.209ZM554.748 577.186V576.193H557.746C558.173 576.193 558.516 576.053 558.774 575.769C559.032 575.488 559.163 575.112 559.166 574.645C559.166 574.179 559.039 573.803 558.781 573.522C558.523 573.241 558.18 573.101 557.749 573.101H554.751V572.108H557.7C558.212 572.108 558.66 572.213 559.042 572.425C559.424 572.637 559.721 572.931 559.933 573.31C560.145 573.689 560.25 574.133 560.25 574.645C560.25 575.158 560.142 575.596 559.93 575.978C559.718 576.36 559.421 576.654 559.039 576.866C558.657 577.078 558.212 577.183 557.7 577.183H554.751L554.748 577.186ZM559.362 580.902L557.351 576.915L558.366 576.637L560.612 580.905H559.362V580.902Z" fill="white"/>
<path d="M564.785 580.993C564.172 580.993 563.636 580.856 563.179 580.585C562.719 580.314 562.363 579.931 562.108 579.438C561.853 578.949 561.726 578.374 561.726 577.718V575.308C561.726 574.648 561.853 574.07 562.108 573.581C562.363 573.088 562.719 572.709 563.179 572.435C563.639 572.164 564.175 572.026 564.785 572.026C565.292 572.026 565.758 572.131 566.18 572.343C566.601 572.555 566.954 572.852 567.238 573.234C567.522 573.617 567.714 574.064 567.816 574.577H566.751C566.663 574.266 566.519 573.995 566.32 573.763C566.121 573.532 565.886 573.352 565.618 573.221C565.35 573.091 565.073 573.029 564.789 573.029C564.188 573.029 563.705 573.238 563.342 573.656C562.977 574.074 562.797 574.622 562.797 575.308V577.718C562.797 578.403 562.98 578.952 563.342 579.367C563.708 579.781 564.188 579.99 564.789 579.99C565.216 579.99 565.618 579.856 565.99 579.589C566.366 579.321 566.617 578.939 566.751 578.443H567.816C567.714 578.955 567.522 579.403 567.234 579.785C566.947 580.167 566.594 580.464 566.176 580.676C565.758 580.888 565.295 580.993 564.785 580.993Z" fill="white"/>
<path d="M569.32 580.903V572.116H570.372V580.903H569.32ZM569.918 573.109V572.119H574.962V573.109H569.918ZM569.918 577.037V576.044H574.3V577.037H569.918ZM569.918 580.903V579.91H574.962V580.903H569.918Z" fill="white"/>
<path d="M576.34 580.901V579.758H577.477V580.901H576.34Z" fill="white"/>
<path d="M581.786 580.993C581.172 580.993 580.637 580.856 580.18 580.585C579.719 580.314 579.363 579.931 579.109 579.438C578.854 578.949 578.727 578.374 578.727 577.718V575.308C578.727 574.648 578.854 574.07 579.109 573.581C579.363 573.088 579.719 572.709 580.18 572.435C580.64 572.164 581.176 572.026 581.786 572.026C582.292 572.026 582.759 572.131 583.18 572.343C583.602 572.555 583.954 572.852 584.238 573.234C584.522 573.617 584.715 574.064 584.816 574.577H583.752C583.664 574.266 583.52 573.995 583.321 573.763C583.122 573.532 582.887 573.352 582.619 573.221C582.351 573.091 582.074 573.029 581.789 573.029C581.189 573.029 580.705 573.238 580.343 573.656C579.977 574.074 579.798 574.622 579.798 575.308V577.718C579.798 578.403 579.981 578.952 580.343 579.367C580.709 579.781 581.189 579.99 581.789 579.99C582.217 579.99 582.619 579.856 582.991 579.589C583.367 579.321 583.618 578.939 583.752 578.443H584.816C584.715 578.955 584.522 579.403 584.235 579.785C583.948 580.167 583.595 580.464 583.177 580.676C582.759 580.888 582.296 580.993 581.786 580.993Z" fill="white"/>
<path d="M589.107 580.994C588.467 580.994 587.915 580.863 587.455 580.605C586.994 580.347 586.638 579.972 586.39 579.489C586.142 579.002 586.018 578.427 586.018 577.758V575.27C586.018 574.597 586.142 574.019 586.39 573.536C586.638 573.053 586.991 572.681 587.455 572.423C587.918 572.165 588.467 572.034 589.107 572.034C589.747 572.034 590.299 572.165 590.759 572.423C591.219 572.684 591.575 573.053 591.823 573.536C592.072 574.019 592.196 574.597 592.196 575.27V577.758C592.196 578.427 592.072 579.005 591.823 579.489C591.575 579.975 591.223 580.347 590.759 580.605C590.299 580.867 589.747 580.994 589.107 580.994ZM589.107 579.985C589.734 579.985 590.23 579.789 590.589 579.397C590.948 579.005 591.131 578.473 591.131 577.797V575.224C591.131 574.545 590.952 574.01 590.589 573.621C590.227 573.233 589.734 573.037 589.107 573.037C588.48 573.037 587.984 573.233 587.624 573.621C587.265 574.01 587.082 574.545 587.082 575.224V577.797C587.082 578.473 587.262 579.009 587.624 579.397C587.984 579.789 588.48 579.985 589.107 579.985Z" fill="white"/>
<path d="M593.449 580.901V579.758H594.585V580.901H593.449Z" fill="white"/>
<path d="M596.126 582.726V579.758H597.263V581.505L596.126 582.726Z" fill="white"/>
<path d="M599.062 580.903V572.116H600.114V580.903H599.062ZM599.679 580.903V579.91H604.708V580.903H599.679Z" fill="white"/>
<path d="M604.459 573.108V572.118H610.66V573.108H604.459ZM607.035 580.902V572.654H608.087V580.902H607.035Z" fill="white"/>
<path d="M611.744 580.903V572.116H612.795V580.903H611.744ZM612.58 580.903V579.91H614.568C615.303 579.91 615.858 579.731 616.24 579.372C616.622 579.012 616.812 578.49 616.812 577.801V575.215C616.812 574.526 616.622 574.004 616.24 573.644C615.858 573.285 615.303 573.106 614.568 573.106H612.58V572.116H614.533C615.623 572.116 616.452 572.384 617.021 572.919C617.589 573.455 617.873 574.235 617.873 575.264V577.752C617.873 578.438 617.745 579.012 617.491 579.479C617.236 579.946 616.861 580.299 616.364 580.54C615.868 580.779 615.254 580.9 614.526 580.9H612.58V580.903Z" fill="white"/>
<path d="M619.126 580.901V579.758H620.262V580.901H619.126Z" fill="white"/>
<path d="M454.862 566.624V558.556H444.339V555.532H468.853V558.556H458.33V566.624H454.859H454.862ZM451.714 542.831C453.011 541.577 454.575 540.953 456.403 540.953C458.232 540.953 459.851 541.58 461.147 542.831C462.444 544.084 463.09 545.593 463.09 547.359C463.09 549.126 462.444 550.683 461.147 551.918C459.851 553.152 458.271 553.769 456.403 553.769C454.536 553.769 453.011 553.152 451.714 551.918C450.418 550.683 449.772 549.165 449.772 547.359C449.772 545.554 450.418 544.081 451.714 542.831ZM454.16 544.979C453.546 545.649 453.239 546.442 453.239 547.359C453.239 548.277 453.546 549.119 454.16 549.769C454.771 550.419 455.528 550.746 456.433 550.746C457.337 550.746 458.046 550.422 458.676 549.769C459.306 549.119 459.623 548.316 459.623 547.359C459.623 546.403 459.306 545.649 458.676 544.979C458.046 544.31 457.298 543.973 456.433 543.973C455.567 543.973 454.774 544.31 454.16 544.979Z" fill="white"/>
<path d="M478.524 545.637L474.27 553.137H470.744L477.013 542.11H480.036L486.305 553.137H482.723L478.524 545.637ZM482.426 557.395C483.703 556.157 485.237 555.537 487.03 555.537C488.823 555.537 490.347 556.157 491.604 557.395C492.861 558.636 493.492 560.121 493.492 561.862C493.492 563.602 492.861 565.022 491.604 566.244C490.347 567.465 488.819 568.075 487.03 568.075C485.241 568.075 483.703 567.465 482.426 566.244C481.15 565.022 480.51 563.563 480.51 561.862C480.51 560.161 481.146 558.636 482.426 557.395ZM484.872 559.517C484.278 560.154 483.98 560.918 483.98 561.806C483.98 562.694 484.278 563.458 484.872 564.095C485.466 564.732 486.194 565.052 487.059 565.052C487.925 565.052 488.587 564.735 489.162 564.095C489.737 563.458 490.027 562.694 490.027 561.806C490.027 560.918 489.74 560.154 489.162 559.517C488.587 558.881 487.885 558.561 487.059 558.561C486.233 558.561 485.466 558.881 484.872 559.517ZM491.706 545.078V542.114H495.176V555.632H491.706V548.105H487.451V545.082H491.706V545.078Z" fill="white"/>
<path d="M511.019 550.62H499.993V547.597H511.019V545.135H499.715V542.114H514.49V555.603H511.019V550.62ZM520.534 546.421V542.114H524.004L523.982 566.63H520.511L520.534 549.448H516.785V546.424H520.534V546.421Z" fill="white"/>
<path d="M528.605 542.085H541.812V555.629H528.605V542.085ZM538.342 545.109H532.073V552.609H538.342V545.109ZM548.359 546.059V542.085H551.83V566.626H548.359V549.082H544.104V546.059H548.359Z" fill="white"/>
<path d="M570.192 542.114H566.666L557.099 555.629H561.341L568.4 545.471L575.41 555.629H579.704L570.192 542.114Z" fill="white"/>
<path d="M580.435 560.295H556.368V563.319H580.435V560.295Z" fill="white"/>
<path d="M587.419 553.859C587.419 549.97 588.536 546.016 590.74 542.104L590.828 541.947H588.173C585.976 545.846 584.895 550.022 584.961 554.365C585.026 558.701 586.11 562.806 588.177 566.57H590.818L590.746 566.43C588.539 561.983 587.419 557.751 587.419 553.859Z" fill="white"/>
<path d="M618.672 541.947H616.018L616.106 542.104C618.307 546.019 619.423 549.973 619.423 553.859C619.423 557.744 618.303 561.983 616.096 566.43L616.024 566.57H618.666C620.762 562.806 621.862 558.701 621.928 554.365C621.993 550.022 620.896 545.846 618.666 541.947H618.672Z" fill="white"/>
<path d="M601.916 564.418V557.192H592.686V554.485H614.206V557.192H605.024V564.418H601.916Z" fill="white"/>
<path d="M609.187 553.093H613.403L607.663 546.054H613.256V543.347H593.636V546.054H599.229L593.489 553.093H597.704L603.444 546.054H603.447L609.187 553.093Z" fill="white"/>
<path d="M501.794 483.149L518.178 522.247L521.655 514.773L508.419 483.149H501.794Z" fill="white"/>
<path d="M540.28 503.234L531.875 483.149H525.251L533.665 503.234L531.046 509.483L520.023 483.149H513.398L529.782 522.247H532.313L540.28 503.234Z" fill="white"/>
<path d="M562.841 490.8L566.048 483.149H534.761L543.169 503.234L541.654 506.855H552.661L549.203 515.116H538.19L535.199 522.247H552.834L559.286 506.855L556.298 499.724H548.315L544.58 490.8H562.841Z" fill="white"/>
<path d="M538.098 515.115L535.111 522.246H535.199L538.19 515.115H538.098Z" fill="white"/>
<circle cx="670" cy="226" r="37" fill="#F3F4F6"/>
<mask id="mask1_471_6918" style="mask-type:alpha" maskUnits="userSpaceOnUse" x="647" y="203" width="48" height="48">
<rect x="647.095" y="203.096" width="46.9841" height="46.9841" fill="#D9D9D9"/>
</mask>
<g mask="url(#mask1_471_6918)">
<path d="M668.728 229.752L668.858 231.252C668.885 231.475 668.972 231.655 669.12 231.794C669.268 231.933 669.45 232.003 669.665 232.003H671.439C671.654 232.003 671.837 231.933 671.986 231.794C672.136 231.655 672.224 231.475 672.251 231.252L672.382 229.752C672.73 229.675 673.053 229.545 673.352 229.361C673.65 229.177 673.914 228.97 674.144 228.74L675.612 229.278C675.797 229.354 675.982 229.36 676.167 229.294C676.352 229.229 676.496 229.106 676.601 228.924L677.462 227.446C677.567 227.264 677.605 227.081 677.578 226.896C677.551 226.712 677.453 226.547 677.286 226.401L676.199 225.575C676.33 225.183 676.395 224.781 676.395 224.368C676.395 223.955 676.33 223.552 676.199 223.161L677.286 222.334C677.453 222.189 677.551 222.024 677.578 221.839C677.605 221.654 677.567 221.471 677.462 221.29L676.601 219.811C676.496 219.63 676.352 219.506 676.167 219.441C675.982 219.376 675.797 219.381 675.612 219.457L674.144 219.995C673.908 219.774 673.637 219.574 673.331 219.397C673.025 219.22 672.708 219.082 672.382 218.984L672.251 217.483C672.225 217.261 672.137 217.081 671.989 216.942C671.841 216.803 671.66 216.733 671.445 216.733H669.67C669.455 216.733 669.273 216.803 669.123 216.942C668.974 217.081 668.885 217.261 668.858 217.483L668.728 218.984C668.401 219.082 668.085 219.22 667.779 219.397C667.472 219.574 667.201 219.774 666.966 219.995L665.497 219.457C665.312 219.381 665.128 219.376 664.943 219.441C664.758 219.506 664.613 219.63 664.509 219.811L663.647 221.29C663.543 221.471 663.504 221.654 663.531 221.839C663.559 222.024 663.656 222.189 663.823 222.334L664.91 223.161C664.78 223.552 664.714 223.955 664.714 224.368C664.714 224.781 664.78 225.183 664.91 225.575L663.823 226.401C663.656 226.547 663.559 226.712 663.531 226.896C663.504 227.081 663.543 227.264 663.647 227.446L664.509 228.924C664.613 229.106 664.758 229.229 664.943 229.294C665.128 229.36 665.312 229.354 665.497 229.278L666.966 228.74C667.195 228.97 667.459 229.177 667.758 229.361C668.056 229.545 668.379 229.675 668.728 229.752ZM670.558 227.63C669.653 227.63 668.883 227.314 668.246 226.68C667.61 226.046 667.292 225.277 667.292 224.371C667.292 223.466 667.609 222.696 668.243 222.059C668.876 221.423 669.646 221.105 670.551 221.105C671.456 221.105 672.227 221.422 672.863 222.055C673.499 222.689 673.817 223.459 673.817 224.364C673.817 225.269 673.501 226.04 672.867 226.676C672.233 227.312 671.464 227.63 670.558 227.63ZM658.841 237.745C656.981 236.049 655.538 234.066 654.51 231.799C653.482 229.531 652.968 227.141 652.968 224.629C652.968 219.735 654.681 215.575 658.107 212.149C661.533 208.723 665.693 207.01 670.587 207.01C674.666 207.01 678.279 208.209 681.428 210.607C684.577 213.005 686.624 216.129 687.57 219.979L690.213 230.437C690.354 230.948 690.262 231.413 689.935 231.832C689.609 232.25 689.174 232.46 688.631 232.46H684.291V238.985C684.291 239.882 683.972 240.65 683.333 241.29C682.694 241.928 681.925 242.248 681.028 242.248H676.46V244.532C676.46 244.994 676.303 245.381 675.99 245.694C675.676 246.007 675.287 246.163 674.823 246.163C674.359 246.163 673.972 246.007 673.662 245.694C673.352 245.381 673.197 244.994 673.197 244.532V240.617C673.197 240.154 673.354 239.767 673.667 239.454C673.979 239.141 674.367 238.985 674.829 238.985H681.028V230.828C681.028 230.366 681.185 229.978 681.497 229.666C681.81 229.353 682.197 229.197 682.66 229.197H686.51L684.422 220.795C683.649 217.696 681.974 215.167 679.397 213.209C676.819 211.252 673.883 210.273 670.587 210.273C666.607 210.273 663.219 211.654 660.424 214.416C657.629 217.179 656.231 220.545 656.231 224.516C656.231 226.57 656.651 228.521 657.49 230.369C658.329 232.218 659.519 233.861 661.06 235.298L662.104 236.277V244.532C662.104 244.994 661.947 245.381 661.633 245.694C661.32 246.007 660.931 246.163 660.467 246.163C660.003 246.163 659.616 246.007 659.306 245.694C658.996 245.381 658.841 244.994 658.841 244.532V237.745Z" fill="#60A5FA"/>
</g>
<path d="M744.52 228.18H741.484V225.445H735.605V222.984H741.484V220.332H735.838C735.063 222.292 733.787 223.96 732.01 225.336C730.242 226.703 728.004 227.76 725.297 228.508L724.066 226.102C726.91 225.327 729.116 224.238 730.684 222.834C732.251 221.43 733.158 219.794 733.404 217.926H725.379V215.465H736.727C736.727 216.349 736.654 217.169 736.508 217.926H741.484V213.742H744.52V228.18ZM736.344 228.453C738.003 228.453 739.461 228.654 740.719 229.055C741.977 229.456 742.952 230.025 743.645 230.764C744.337 231.502 744.684 232.372 744.684 233.375C744.684 234.378 744.337 235.248 743.645 235.986C742.952 236.725 741.977 237.294 740.719 237.695C739.461 238.096 738.003 238.297 736.344 238.297C734.667 238.297 733.195 238.096 731.928 237.695C730.661 237.294 729.681 236.725 728.988 235.986C728.296 235.248 727.949 234.378 727.949 233.375C727.949 232.372 728.296 231.502 728.988 230.764C729.681 230.025 730.661 229.456 731.928 229.055C733.195 228.654 734.667 228.453 736.344 228.453ZM736.344 230.832C734.658 230.832 733.34 231.055 732.393 231.502C731.454 231.939 730.984 232.564 730.984 233.375C730.984 234.177 731.458 234.797 732.406 235.234C733.354 235.672 734.667 235.891 736.344 235.891C737.984 235.891 739.279 235.672 740.227 235.234C741.174 234.797 741.648 234.177 741.648 233.375C741.648 232.564 741.174 231.939 740.227 231.502C739.288 231.055 737.993 230.832 736.344 230.832ZM754.183 215.109C755.167 215.109 756.079 215.283 756.917 215.629C757.765 215.966 758.485 216.449 759.077 217.078H764.984V213.715H768.019V228.262H764.984V225.117H759.064C758.48 225.737 757.765 226.22 756.917 226.566C756.079 226.904 755.167 227.068 754.183 227.059C752.961 227.068 751.849 226.817 750.847 226.307C749.853 225.796 749.07 225.085 748.495 224.174C747.93 223.262 747.648 222.237 747.648 221.098C747.648 219.949 747.93 218.919 748.495 218.008C749.07 217.096 749.853 216.385 750.847 215.875C751.84 215.365 752.952 215.109 754.183 215.109ZM754.183 217.707C753.472 217.707 752.843 217.848 752.296 218.131C751.749 218.404 751.321 218.796 751.011 219.307C750.701 219.817 750.546 220.414 750.546 221.098C750.546 221.763 750.701 222.355 751.011 222.875C751.321 223.385 751.749 223.782 752.296 224.064C752.852 224.347 753.481 224.488 754.183 224.488C754.857 224.488 755.463 224.347 756.001 224.064C756.548 223.782 756.976 223.385 757.286 222.875C757.596 222.355 757.756 221.763 757.765 221.098C757.756 220.414 757.596 219.817 757.286 219.307C756.976 218.796 756.553 218.404 756.015 218.131C755.477 217.848 754.866 217.707 754.183 217.707ZM759.652 228.781C761.374 228.781 762.869 228.973 764.136 229.355C765.412 229.738 766.392 230.29 767.075 231.01C767.759 231.73 768.101 232.591 768.101 233.594C768.101 234.596 767.759 235.458 767.075 236.178C766.392 236.898 765.412 237.449 764.136 237.832C762.869 238.215 761.374 238.406 759.652 238.406C757.929 238.406 756.434 238.215 755.167 237.832C753.909 237.449 752.939 236.898 752.255 236.178C751.581 235.458 751.248 234.596 751.257 233.594C751.248 232.591 751.581 231.73 752.255 231.01C752.939 230.29 753.909 229.738 755.167 229.355C756.434 228.973 757.929 228.781 759.652 228.781ZM759.652 231.105C757.92 231.105 756.58 231.32 755.632 231.748C754.693 232.176 754.228 232.792 754.237 233.594C754.228 234.368 754.693 234.97 755.632 235.398C756.58 235.818 757.92 236.027 759.652 236.027C761.402 236.027 762.751 235.818 763.698 235.398C764.646 234.97 765.12 234.368 765.12 233.594C765.12 232.792 764.646 232.176 763.698 231.748C762.76 231.32 761.411 231.105 759.652 231.105ZM760.445 219.512C760.59 220.049 760.663 220.578 760.663 221.098C760.663 221.59 760.595 222.109 760.458 222.656H764.984V219.512H760.445ZM791.463 238.434H788.401V213.715H791.463V238.434ZM784.08 216.34C784.08 220.268 783.192 223.718 781.414 226.689C779.637 229.652 776.689 232.108 772.569 234.059L770.983 231.625C774.164 230.112 776.556 228.303 778.161 226.197C779.774 224.083 780.717 221.599 780.991 218.746H772.241V216.34H784.08ZM809.822 217.926H795.193V215.684H800.963V213.578H803.998V215.684H809.822V217.926ZM802.521 218.637C803.715 218.628 804.772 218.773 805.693 219.074C806.614 219.375 807.324 219.808 807.826 220.373C808.336 220.938 808.591 221.599 808.591 222.355C808.591 223.312 808.177 224.105 807.347 224.734C806.527 225.363 805.41 225.764 803.998 225.938V227.264C806.158 227.154 808.209 226.977 810.15 226.73L810.369 228.809C808.008 229.21 805.552 229.474 803 229.602C800.448 229.729 797.727 229.793 794.838 229.793L794.427 227.441H795.795C797.235 227.441 798.957 227.419 800.963 227.373V225.924C799.541 225.751 798.424 225.354 797.613 224.734C796.811 224.105 796.414 223.312 796.423 222.355C796.414 221.599 796.66 220.938 797.162 220.373C797.663 219.808 798.374 219.375 799.295 219.074C800.224 218.773 801.3 218.628 802.521 218.637ZM802.521 220.688C801.537 220.669 800.757 220.811 800.183 221.111C799.618 221.403 799.34 221.818 799.349 222.355C799.34 222.857 799.623 223.253 800.197 223.545C800.771 223.827 801.546 223.96 802.521 223.941C803.469 223.96 804.23 223.827 804.804 223.545C805.388 223.253 805.684 222.857 805.693 222.355C805.684 221.818 805.392 221.403 804.818 221.111C804.244 220.811 803.478 220.669 802.521 220.688ZM814.935 230.395H811.873V213.77H814.935V230.395ZM814.935 238.434H811.873V233.785H797.927V231.406H814.935V238.434ZM831.134 217.625H822.274V219.922H830.423V222.301H822.274V224.734C824.808 224.725 826.841 224.68 828.372 224.598C829.903 224.516 831.434 224.352 832.966 224.105L833.266 226.484C831.79 226.74 830.3 226.913 828.796 227.004C827.301 227.095 825.419 227.141 823.149 227.141H821.29H819.184V215.164H831.134V217.625ZM838.407 228.426H835.345V213.742H838.407V228.426ZM838.407 238.133H822.001V229.52H838.407V238.133ZM825.009 235.672H835.427V231.871H825.009V235.672Z" fill="#303030"/>
<circle cx="866" cy="584" r="37" fill="#F3F4F6"/>
<mask id="mask2_471_6918" style="mask-type:alpha" maskUnits="userSpaceOnUse" x="843" y="561" width="48" height="48">
<rect x="843.095" y="561.096" width="46.9841" height="46.9841" fill="#D9D9D9"/>
</mask>
<g mask="url(#mask2_471_6918)">
<path d="M851.578 582.629L855.983 578.224C856.299 577.909 856.456 577.528 856.456 577.083C856.456 576.637 856.299 576.256 855.983 575.94C855.668 575.625 855.287 575.467 854.841 575.467C854.395 575.467 854.015 575.625 853.699 575.94L848.152 581.487C847.826 581.814 847.663 582.194 847.663 582.629C847.663 583.064 847.826 583.445 848.152 583.771L853.699 589.318C854.015 589.633 854.395 589.791 854.841 589.791C855.287 589.791 855.668 589.633 855.983 589.318C856.299 589.003 856.456 588.622 856.456 588.176C856.456 587.73 856.299 587.349 855.983 587.034L851.578 582.629ZM881.596 582.629L877.191 587.034C876.876 587.349 876.718 587.73 876.718 588.176C876.718 588.622 876.876 589.003 877.191 589.318C877.507 589.633 877.887 589.791 878.333 589.791C878.779 589.791 879.16 589.633 879.475 589.318L885.022 583.771C885.348 583.445 885.512 583.064 885.512 582.629C885.512 582.194 885.348 581.814 885.022 581.487L879.475 575.94C879.16 575.625 878.779 575.467 878.333 575.467C877.887 575.467 877.507 575.625 877.191 575.94C876.876 576.256 876.718 576.637 876.718 577.083C876.718 577.528 876.876 577.909 877.191 578.224L881.596 582.629ZM847.01 573.722V570.231C847.01 569.371 847.334 568.613 847.981 567.955C848.628 567.297 849.392 566.968 850.273 566.968H882.901C883.76 566.968 884.519 567.297 885.177 567.955C885.835 568.613 886.164 569.371 886.164 570.231V573.722C886.164 574.184 886.007 574.572 885.693 574.884C885.38 575.197 884.991 575.353 884.527 575.353C884.063 575.353 883.676 575.197 883.366 574.884C883.056 574.572 882.901 574.184 882.901 573.722V570.231H850.273V573.722C850.273 574.184 850.117 574.572 849.803 574.884C849.489 575.197 849.1 575.353 848.636 575.353C848.172 575.353 847.785 575.197 847.475 574.884C847.165 574.572 847.01 574.184 847.01 573.722ZM860.714 602.206C860.252 602.206 859.864 602.05 859.552 601.737C859.239 601.424 859.083 601.037 859.083 600.575V598.291H850.273C849.392 598.291 848.628 597.961 847.981 597.303C847.334 596.646 847.01 595.887 847.01 595.028V591.357C847.01 590.888 847.167 590.501 847.481 590.198C847.795 589.894 848.184 589.742 848.648 589.742C849.112 589.742 849.499 589.898 849.809 590.211C850.118 590.524 850.273 590.911 850.273 591.374V595.028H882.901V591.357C882.901 590.888 883.058 590.501 883.372 590.198C883.686 589.894 884.074 589.742 884.538 589.742C885.002 589.742 885.389 589.898 885.699 590.211C886.009 590.524 886.164 590.911 886.164 591.374V595.028C886.164 595.887 885.835 596.646 885.177 597.303C884.519 597.961 883.76 598.291 882.901 598.291H874.091V600.575C874.091 601.037 873.935 601.424 873.623 601.737C873.31 602.05 872.923 602.206 872.46 602.206H860.714Z" fill="#60A5FA"/>
</g>
<path d="M940.273 574.723H936.883V578.469H940.137V580.766H921.98V578.469H925.234V574.723H921.844V572.426H940.273V574.723ZM942.352 584.73H919.82V582.324H942.352V584.73ZM939.535 592.277H925.48V593.945H940.219V596.215H922.5V590.172H936.555V588.613H922.473V586.398H939.535V592.277ZM933.82 578.469V574.723H928.27V578.469H933.82ZM964.456 588.422H961.558V580.355H958.987V586.344H956.144V572.207H958.987V577.895H961.558V571.742H964.456V588.422ZM953.737 580.82H947.312V583.691C948.807 583.673 950.137 583.614 951.304 583.514C952.48 583.404 953.674 583.236 954.886 583.008L955.159 585.387C953.783 585.669 952.43 585.856 951.099 585.947C949.777 586.029 948.096 586.07 946.054 586.07H944.359V578.605H950.812V575.98H944.331V573.52H953.737V580.82ZM957.511 587.82C957.511 588.759 957.844 589.657 958.509 590.514C959.183 591.37 960.136 592.104 961.366 592.715C962.597 593.326 964.028 593.736 965.659 593.945L964.429 596.297C962.506 596.014 960.81 595.458 959.343 594.629C957.876 593.799 956.759 592.77 955.993 591.539C955.228 592.77 954.111 593.799 952.644 594.629C951.176 595.458 949.481 596.014 947.558 596.297L946.327 593.945C947.95 593.736 949.376 593.326 950.607 592.715C951.837 592.104 952.785 591.37 953.45 590.514C954.125 589.657 954.467 588.759 954.476 587.82V587.301H957.511V587.82ZM989.35 586.262H966.819V583.855H976.526V581.586H968.979V579.125H972.233V574.887H968.842V572.453H987.272V574.887H983.881V579.125H987.135V581.586H979.561V583.855H989.35V586.262ZM986.616 596.133H969.471V588.203H986.616V596.133ZM972.479 593.672H983.662V590.582H972.479V593.672ZM980.819 579.125V574.887H975.268V579.125H980.819ZM1011.54 596.434H1008.61V583.746H1005.96V595.285H1003.11V572.371H1005.96V581.285H1008.61V571.715H1011.54V596.434ZM1001.01 574.832C1001.01 577.184 1000.73 579.344 1000.16 581.312C999.597 583.281 998.64 585.109 997.291 586.795C995.942 588.481 994.137 589.971 991.877 591.266L990.127 589.16C992.679 587.684 994.579 585.97 995.828 584.02C997.086 582.069 997.828 579.818 998.056 577.266H991.275V574.832H1001.01ZM1017.67 575.953H1023.44V572.809H1026.45V583.582H1014.66V572.809H1017.67V575.953ZM1023.44 581.176V578.25H1017.67V581.176H1023.44ZM1033.31 576.719H1036.76V579.18H1033.31V584.375H1030.28V571.715H1033.31V576.719ZM1033.31 591.84H1020.19V593.809H1034.08V596.215H1017.18V589.625H1030.28V587.738H1017.15V585.359H1033.31V591.84ZM1050.63 575.625H1041.77V577.922H1049.92V580.301H1041.77V582.734C1044.31 582.725 1046.34 582.68 1047.87 582.598C1049.4 582.516 1050.93 582.352 1052.46 582.105L1052.77 584.484C1051.29 584.74 1049.8 584.913 1048.29 585.004C1046.8 585.095 1044.92 585.141 1042.65 585.141H1040.79H1038.68V573.164H1050.63V575.625ZM1057.91 586.426H1054.84V571.742H1057.91V586.426ZM1057.91 596.133H1041.5V587.52H1057.91V596.133ZM1044.51 593.672H1054.93V589.871H1044.51V593.672Z" fill="#303030"/>
<circle cx="596" cy="859" r="37" fill="#F3F4F6"/>
<mask id="mask3_471_6918" style="mask-type:alpha" maskUnits="userSpaceOnUse" x="573" y="836" width="48" height="48">
<rect x="573.095" y="836.095" width="46.9841" height="46.9841" fill="#D9D9D9"/>
</mask>
<g mask="url(#mask3_471_6918)">
<path d="M592.182 871.333C591.285 871.333 590.517 871.013 589.878 870.374C589.239 869.735 588.92 868.967 588.92 868.07V865.068C587.008 863.773 585.524 862.114 584.468 860.089C583.412 858.064 582.884 855.906 582.884 853.616C582.884 849.826 584.219 846.61 586.888 843.97C589.559 841.33 592.797 840.01 596.603 840.01C600.41 840.01 603.643 841.339 606.302 843.999C608.961 846.658 610.291 849.896 610.291 853.713C610.291 856.008 609.761 858.153 608.7 860.149C607.64 862.145 606.158 863.785 604.255 865.068V868.07C604.255 868.967 603.935 869.735 603.296 870.374C602.657 871.013 601.889 871.333 600.992 871.333H592.182ZM592.345 868.07H600.829V864.367C600.829 864.084 600.892 863.828 601.016 863.6C601.141 863.371 601.313 863.176 601.53 863.012L602.558 862.294C603.979 861.317 605.079 860.069 605.859 858.55C606.638 857.031 607.028 855.416 607.028 853.705C607.028 850.807 606.014 848.343 603.986 846.315C601.957 844.287 599.491 843.273 596.587 843.273C593.683 843.273 591.217 844.293 589.189 846.335C587.161 848.377 586.146 850.846 586.146 853.742C586.146 855.452 586.536 857.062 587.316 858.572C588.096 860.082 589.196 861.323 590.616 862.294L591.644 863.012C591.862 863.176 592.033 863.371 592.158 863.6C592.283 863.828 592.345 864.084 592.345 864.367V868.07ZM592.574 879.163C592.112 879.163 591.724 879.006 591.412 878.692C591.099 878.379 590.943 877.99 590.943 877.526C590.943 877.062 591.099 876.675 591.412 876.365C591.724 876.055 592.112 875.9 592.574 875.9H600.633C601.095 875.9 601.483 876.057 601.796 876.371C602.108 876.685 602.264 877.074 602.264 877.537C602.264 878.001 602.108 878.388 601.796 878.698C601.483 879.008 601.095 879.163 600.633 879.163H592.574Z" fill="#60A5FA"/>
</g>
<path d="M672.406 868.344H649.82V865.828H672.406V868.344ZM655.344 852.621H666.801V848.383H669.836V861.426H652.309V848.383H655.344V852.621ZM666.801 859.047V855H655.344V859.047H666.801ZM694.456 865.09H691.558V856.367H688.987V864.516H686.144V847.207H688.987V853.879H691.558V846.742H694.456V865.09ZM695.14 870.941H677.913V863.367H680.948V868.48H695.14V870.941ZM683.737 856.258H677.312V859.184C678.816 859.165 680.151 859.111 681.318 859.02C682.484 858.919 683.674 858.755 684.886 858.527L685.159 860.961C683.747 861.207 682.361 861.376 681.003 861.467C679.645 861.549 677.995 861.59 676.054 861.59H674.359V853.961H680.812V851.172H674.331V848.766H683.737V856.258ZM716.889 860.742H699.553V848.875H716.698V851.336H702.561V858.309H716.889V860.742ZM719.405 868.289H696.819V865.773H719.405V868.289ZM741.017 864.789H737.982V855.738H733.607V853.277H737.982V846.742H741.017V864.789ZM741.646 870.941H724.802V863.203H727.838V868.48H741.646V870.941ZM729.396 851.664C729.396 852.676 729.619 853.665 730.066 854.631C730.513 855.588 731.173 856.449 732.048 857.215C732.923 857.971 733.981 858.555 735.22 858.965L733.689 861.398C732.34 860.934 731.173 860.259 730.189 859.375C729.214 858.482 728.448 857.438 727.892 856.244C727.336 857.575 726.543 858.732 725.513 859.717C724.483 860.692 723.253 861.426 721.822 861.918L720.263 859.457C721.539 859.038 722.629 858.427 723.531 857.625C724.442 856.814 725.13 855.893 725.595 854.863C726.069 853.824 726.306 852.749 726.306 851.637V850.98H721.166V848.52H734.509V850.98H729.396V851.664ZM766.759 852.812H763.313V855.574H766.759V858.062H763.313V861.754H760.278V846.742H763.313V850.324H766.759V852.812ZM756.04 855.465H747.809V858.227C750.042 858.217 751.938 858.163 753.497 858.062C755.065 857.962 756.651 857.771 758.255 857.488L758.583 859.922C756.796 860.223 755.024 860.432 753.264 860.551C751.505 860.66 749.35 860.715 746.798 860.715H744.774V853.113H753.059V850.598H744.747V848.137H756.04V855.465ZM763.313 871.406H760.278V865.363H746.852V862.93H763.313V871.406ZM780.633 850.625H771.773V852.922H779.922V855.301H771.773V857.734C774.307 857.725 776.34 857.68 777.871 857.598C779.402 857.516 780.934 857.352 782.465 857.105L782.766 859.484C781.289 859.74 779.799 859.913 778.295 860.004C776.8 860.095 774.918 860.141 772.648 860.141H770.789H768.684V848.164H780.633V850.625ZM787.906 861.426H784.844V846.742H787.906V861.426ZM787.906 871.133H771.5V862.52H787.906V871.133ZM774.508 868.672H784.926V864.871H774.508V868.672Z" fill="#303030"/>
<path d="M95.3828 665.461H92.3203V640.715H95.3828V665.461ZM88.2734 645.445H79.4141V656.93C81.8203 656.921 83.8118 656.866 85.3887 656.766C86.9655 656.665 88.5378 656.474 90.1055 656.191L90.4062 658.707C88.7201 659.017 86.9974 659.227 85.2383 659.336C83.4883 659.445 81.2279 659.5 78.457 659.5H76.3516V642.957H88.2734V645.445ZM107.179 647.742C107.179 649.036 107.425 650.34 107.917 651.652C108.418 652.965 109.134 654.159 110.064 655.234C111.002 656.31 112.101 657.139 113.359 657.723L111.663 660.129C110.305 659.491 109.116 658.557 108.095 657.326C107.074 656.087 106.277 654.669 105.702 653.074C105.128 654.815 104.312 656.36 103.255 657.709C102.198 659.058 100.972 660.065 99.5773 660.73L97.8 658.352C99.0669 657.75 100.179 656.88 101.136 655.74C102.102 654.601 102.84 653.329 103.351 651.926C103.87 650.522 104.135 649.128 104.144 647.742V645.664H98.757V643.148H112.347V645.664H107.179V647.742ZM117.679 650.34H121.48V652.883H117.679V665.434H114.644V640.715H117.679V650.34ZM142.409 658.598H139.346V640.742H142.409V658.598ZM143.092 664.941H126.057V656.793H129.12V662.48H143.092V664.941ZM128.928 642.355C130.168 642.355 131.293 642.624 132.305 643.162C133.317 643.691 134.114 644.424 134.698 645.363C135.281 646.302 135.573 647.359 135.573 648.535C135.573 649.729 135.281 650.8 134.698 651.748C134.114 652.687 133.317 653.421 132.305 653.949C131.293 654.478 130.168 654.742 128.928 654.742C127.679 654.742 126.545 654.478 125.524 653.949C124.512 653.421 123.715 652.687 123.131 651.748C122.548 650.8 122.256 649.729 122.256 648.535C122.256 647.359 122.548 646.302 123.131 645.363C123.715 644.424 124.512 643.691 125.524 643.162C126.545 642.624 127.679 642.355 128.928 642.355ZM128.928 645.008C128.226 645.008 127.593 645.154 127.028 645.445C126.463 645.737 126.021 646.152 125.702 646.689C125.383 647.227 125.228 647.842 125.237 648.535C125.228 649.246 125.383 649.87 125.702 650.408C126.021 650.946 126.463 651.361 127.028 651.652C127.593 651.944 128.226 652.09 128.928 652.09C129.612 652.09 130.232 651.944 130.787 651.652C131.343 651.361 131.781 650.946 132.1 650.408C132.428 649.87 132.592 649.246 132.592 648.535C132.592 647.842 132.428 647.227 132.1 646.689C131.781 646.152 131.343 645.737 130.787 645.445C130.232 645.154 129.612 645.008 128.928 645.008ZM158.634 644.625H149.775V646.922H157.923V649.301H149.775V651.734C152.309 651.725 154.341 651.68 155.873 651.598C157.404 651.516 158.935 651.352 160.466 651.105L160.767 653.484C159.291 653.74 157.8 653.913 156.296 654.004C154.802 654.095 152.92 654.141 150.65 654.141H148.791H146.685V642.164H158.634V644.625ZM165.908 655.426H162.845V640.742H165.908V655.426ZM165.908 665.133H149.502V656.52H165.908V665.133ZM152.509 662.672H162.927V658.871H152.509V662.672Z" fill="#303030"/>
<circle cx="222" cy="653" r="37" fill="#F3F4F6"/>
<mask id="mask4_471_6918" style="mask-type:alpha" maskUnits="userSpaceOnUse" x="199" y="630" width="48" height="48">
<rect x="199.095" y="630.096" width="46.9841" height="46.9841" fill="#D9D9D9"/>
</mask>
<g mask="url(#mask4_471_6918)">
<path d="M214.952 631.237L230.728 647.045C231.478 647.791 231.853 648.716 231.853 649.819C231.853 650.922 231.478 651.846 230.728 652.592L221.82 661.5C221.07 662.25 220.173 662.625 219.129 662.625C218.084 662.625 217.187 662.25 216.437 661.5L207.529 652.592C206.779 651.847 206.404 650.923 206.404 649.821C206.404 648.719 206.779 647.795 207.529 647.049L216.796 637.763L212.587 633.554C212.261 633.222 212.106 632.834 212.122 632.391C212.138 631.948 212.31 631.559 212.636 631.224C212.962 630.918 213.348 630.762 213.794 630.756C214.24 630.75 214.626 630.911 214.952 631.237ZM219.129 640.096L209.52 649.705H228.738L219.129 640.096ZM236.023 663.343C235.016 663.343 234.157 662.985 233.444 662.27C232.732 661.554 232.376 660.694 232.376 659.689C232.376 659.083 232.531 658.434 232.841 657.742C233.15 657.049 233.539 656.361 234.007 655.676C234.279 655.262 234.594 654.822 234.953 654.354C235.312 653.886 235.671 653.446 236.03 653.033C236.389 653.446 236.748 653.886 237.107 654.354C237.466 654.822 237.781 655.262 238.053 655.676C238.52 656.361 238.909 657.049 239.219 657.742C239.529 658.434 239.684 659.083 239.684 659.689C239.684 660.694 239.326 661.554 238.609 662.27C237.892 662.985 237.03 663.343 236.023 663.343ZM206.273 677.112C205.376 677.112 204.608 676.79 203.969 676.145C203.33 675.5 203.01 674.725 203.01 673.82C203.01 672.915 203.333 672.145 203.979 671.508C204.624 670.872 205.4 670.554 206.306 670.554H238.901C239.798 670.554 240.566 670.874 241.206 671.514C241.845 672.154 242.164 672.923 242.164 673.822C242.164 674.721 241.841 675.494 241.196 676.141C240.55 676.789 239.775 677.112 238.869 677.112H206.273Z" fill="#60A5FA"/>
</g>
<defs>
<filter id="filter0_dd_471_6918" x="0" y="0" width="1064" height="1064" filterUnits="userSpaceOnUse" color-interpolation-filters="sRGB">
<feFlood flood-opacity="0" result="BackgroundImageFix"/>
<feColorMatrix in="SourceAlpha" type="matrix" values="0 0 0 0 0 0 0 0 0 0 0 0 0 0 0 0 0 0 127 0" result="hardAlpha"/>
<feOffset dx="-2" dy="-2"/>
<feGaussianBlur stdDeviation="5"/>
<feComposite in2="hardAlpha" operator="out"/>
<feColorMatrix type="matrix" values="0 0 0 0 0.952941 0 0 0 0 0.956863 0 0 0 0 0.964706 0 0 0 1 0"/>
<feBlend mode="normal" in2="BackgroundImageFix" result="effect1_dropShadow_471_6918"/>
<feColorMatrix in="SourceAlpha" type="matrix" values="0 0 0 0 0 0 0 0 0 0 0 0 0 0 0 0 0 0 127 0" result="hardAlpha"/>
<feOffset dx="1" dy="1"/>
<feGaussianBlur stdDeviation="5"/>
<feComposite in2="hardAlpha" operator="out"/>
<feColorMatrix type="matrix" values="0 0 0 0 0.952941 0 0 0 0 0.956863 0 0 0 0 0.964706 0 0 0 1 0"/>
<feBlend mode="normal" in2="effect1_dropShadow_471_6918" result="effect2_dropShadow_471_6918"/>
<feBlend mode="normal" in="SourceGraphic" in2="effect2_dropShadow_471_6918" result="shape"/>
</filter>
<filter id="filter1_dd_471_6918" x="178" y="178" width="711" height="711" filterUnits="userSpaceOnUse" color-interpolation-filters="sRGB">
<feFlood flood-opacity="0" result="BackgroundImageFix"/>
<feColorMatrix in="SourceAlpha" type="matrix" values="0 0 0 0 0 0 0 0 0 0 0 0 0 0 0 0 0 0 127 0" result="hardAlpha"/>
<feOffset dx="2" dy="2"/>
<feGaussianBlur stdDeviation="5"/>
<feComposite in2="hardAlpha" operator="out"/>
<feColorMatrix type="matrix" values="0 0 0 0 0.952941 0 0 0 0 0.956863 0 0 0 0 0.964706 0 0 0 1 0"/>
<feBlend mode="normal" in2="BackgroundImageFix" result="effect1_dropShadow_471_6918"/>
<feColorMatrix in="SourceAlpha" type="matrix" values="0 0 0 0 0 0 0 0 0 0 0 0 0 0 0 0 0 0 127 0" result="hardAlpha"/>
<feOffset dx="-1" dy="-1"/>
<feGaussianBlur stdDeviation="5"/>
<feComposite in2="hardAlpha" operator="out"/>
<feColorMatrix type="matrix" values="0 0 0 0 0.952941 0 0 0 0 0.956863 0 0 0 0 0.964706 0 0 0 1 0"/>
<feBlend mode="normal" in2="effect1_dropShadow_471_6918" result="effect2_dropShadow_471_6918"/>
<feBlend mode="normal" in="SourceGraphic" in2="effect2_dropShadow_471_6918" result="shape"/>
</filter>
</defs>
</svg>
