<svg width="20" height="20" viewBox="0 0 20 20" fill="none" xmlns="http://www.w3.org/2000/svg">
<mask id="mask0_448_6533" style="mask-type:alpha" maskUnits="userSpaceOnUse" x="0" y="0" width="20" height="20">
<rect width="20" height="20" transform="matrix(1 8.74228e-08 8.74228e-08 -1 0 20)" fill="#D9D9D9"/>
</mask>
<g mask="url(#mask0_448_6533)">
<path d="M7.95833 9.99966L14.0833 3.87466C14.2917 3.66633 14.3924 3.42328 14.3854 3.1455C14.3785 2.86772 14.2708 2.62466 14.0625 2.41633C13.8542 2.208 13.6111 2.10383 13.3333 2.10383C13.0556 2.10383 12.8125 2.208 12.6042 2.41633L6.1875 8.81216C6.02083 8.97883 5.89583 9.16633 5.8125 9.37466C5.72917 9.583 5.6875 9.79133 5.6875 9.99966C5.6875 10.208 5.72917 10.4163 5.8125 10.6247C5.89583 10.833 6.02083 11.0205 6.1875 11.1872L12.6042 17.6038C12.8125 17.8122 13.059 17.9129 13.3438 17.9059C13.6285 17.899 13.875 17.7913 14.0833 17.583C14.2917 17.3747 14.3958 17.1316 14.3958 16.8538C14.3958 16.5761 14.2917 16.333 14.0833 16.1247L7.95833 9.99966Z" fill="#565656"/>
</g>
</svg>
