<svg width="32" height="33" viewBox="0 0 32 33" fill="none" xmlns="http://www.w3.org/2000/svg">
<g id="Icon/32/sns">
<rect y="0.545456" width="32" height="32" rx="16" fill="#565656"/>
<path id="Subtract" fill-rule="evenodd" clip-rule="evenodd" d="M23.6641 9.93374C24.4695 10.1478 25.1025 10.7761 25.3181 11.5756H25.3165C25.7077 13.0232 25.7077 16.0455 25.7077 16.0455C25.7077 16.0455 25.7077 19.0677 25.3165 20.5154C25.1009 21.3149 24.468 21.9432 23.6626 22.1572C22.2042 22.5455 16.3538 22.5455 16.3538 22.5455C16.3538 22.5455 10.5035 22.5455 9.04509 22.1572C8.23968 21.9432 7.60675 21.3149 7.39116 20.5154C7 19.0677 7 16.0455 7 16.0455C7 16.0455 7 13.0232 7.39116 11.5756C7.60675 10.7761 8.23968 10.1478 9.04509 9.93374C10.5035 9.54546 16.3538 9.54546 16.3538 9.54546C16.3538 9.54546 22.2042 9.54546 23.6641 9.93374ZM19.4221 16.0456L14.4844 18.8309V13.2603L19.4221 16.0456Z" fill="white"/>
</g>
</svg>
